<?xml version="1.0" encoding="UTF-8"?>
<svg width="46px" height="69px" viewBox="0 0 46 69" version="1.1" xmlns="http://www.w3.org/2000/svg" xmlns:xlink="http://www.w3.org/1999/xlink">
    <!-- Generator: Sketch 51.3 (57544) - http://www.bohemiancoding.com/sketch -->
    <title>Group 3</title>
    <desc>Created with Sketch.</desc>
    <defs>
        <polygon id="path-1" points="0 0 46 0 46 69 0 69"></polygon>
    </defs>
    <g id="Page-1" stroke="none" stroke-width="1" fill="none" fill-rule="evenodd">
        <g id="Desktop-HD-Copy-5" transform="translate(-516.000000, -1667.000000)">
            <g id="Group-3" transform="translate(516.000000, 1667.000000)">
                <mask id="mask-2" fill="white">
                    <use xlink:href="#path-1"></use>
                </mask>
                <g id="Clip-2"></g>
                <path d="M22.2119527,62.2174406 C22.2707927,62.2486351 22.3299474,62.2801296 22.3887874,62.3116241 C22.9038736,61.4579744 23.4189599,60.6040248 23.9340461,59.7503752 C22.702496,60.2182928 22.7874522,61.3964853 22.2119527,62.2174406 M27.0874939,48.5137545 C27.107317,48.5476485 27.1271402,48.5812426 27.1466486,48.6145367 C27.8983535,48.0524358 28.6440801,47.4825361 29.4083711,46.9366323 C29.521646,46.8559465 29.7242823,46.8889407 29.8853844,46.8694441 C29.8554924,47.0185179 29.8812939,47.238979 29.7872128,47.3055673 C28.7416224,48.0461369 27.6673986,48.749513 26.6258986,49.4948817 C26.371974,49.6766497 26.0994849,49.9475019 26.024283,50.2243532 C25.5781057,51.8611649 25.2077596,53.5165733 24.7716512,55.1560845 C24.492869,56.2032 24.144234,57.2335185 23.8267496,58.2716357 C23.883387,58.3064296 23.9403391,58.3409235 23.9969766,58.3757173 C24.701169,57.5847567 25.577791,56.8810806 26.0784032,55.9866382 C27.7246653,53.0441565 29.2381441,50.0344866 30.7890665,47.0440134 C30.8831476,46.8631452 30.9530005,46.5859941 30.874652,46.4234227 C30.5880035,45.8277276 30.2337048,45.2620273 29.9030049,44.6816295 C28.9407974,45.9911988 28.0141457,47.2524767 27.0874939,48.5137545 M16.8754455,48.8481956 C15.6923519,50.5992871 14.3874878,52.5090507 13.118494,54.4407105 C12.9970382,54.6254779 13.0178052,54.9731167 13.1081105,55.1950776 C14.6382659,58.9516159 16.188559,62.7006555 17.7401107,66.4490953 C17.8039851,66.6032681 17.9226092,66.7361447 17.911911,66.7199475 C17.5667371,60.7644966 17.2143263,54.6902665 16.8754455,48.8481956 M26.8345133,33.8796322 C26.5658,34.2659642 26.3052677,34.6579951 26.0271148,35.0383281 C24.6092905,36.9762868 22.8749256,38.6298955 20.9939327,40.1560267 C20.7878353,40.3233972 20.5288762,40.6719358 20.5848844,40.8564033 C21.2953698,43.1953913 22.4410197,45.3256161 24.1193764,47.1912874 C24.1020706,46.921035 24.0230928,46.6738786 23.9318435,46.4309214 C23.3610638,44.9137886 22.9847394,43.3699606 23.3078875,41.749346 C23.3469044,41.5525807 23.5592949,41.3873098 23.691449,41.2073415 C23.7443106,41.4170046 23.8641932,41.6344663 23.8393357,41.8351309 C23.5467088,44.1882164 24.3537926,46.2725493 25.5579679,48.4855595 C26.4654258,43.5355314 26.8279056,38.7483746 26.8345133,33.8796322 M22.2386982,57.9092995 C22.1496515,57.2497157 22.0370059,56.5919316 21.9784805,55.9299482 C21.9190112,55.2583665 21.855766,54.5792861 21.8957269,53.9092041 C21.9649504,52.7415098 22.1030829,51.5771149 22.2396421,50.4142197 C22.2534868,50.2960406 22.4529765,50.1976579 22.5659368,50.0899768 C22.6326431,50.2285524 22.7666851,50.373127 22.754099,50.5048038 C22.6892806,51.1751857 22.5769496,51.8410684 22.4986012,52.5105505 C22.3208225,54.0270833 22.6040098,57.1489334 23.1033634,58.1639546 C23.9003783,55.3807449 24.620618,52.5792384 25.3065605,49.7702332 C25.3506119,49.5902649 25.1747211,49.3197125 25.0284077,49.146643 C24.3553659,48.3502833 23.6105833,47.6055145 22.9765584,46.7830593 C21.6260696,45.0316678 20.6736164,43.0784119 19.9820101,40.9610849 C19.3476705,41.3948085 18.7979725,41.8204335 18.1973008,42.1656727 C17.7067575,42.447923 17.5657932,42.7871632 17.584987,43.3258683 C17.7010938,46.5473009 17.7297271,49.7717329 17.8750966,52.9919657 C18.0371427,56.5850328 18.2813131,60.1748004 18.5154146,63.7648681 C18.5751985,64.6830063 18.7318955,65.5951457 18.8442265,66.5102845 C18.9408248,66.5315807 19.0377378,66.5531769 19.1346508,66.5744732 C20.0864747,64.6686089 21.0024283,62.7453477 22.0061699,60.8646789 C22.4611575,60.0122291 22.3689643,59.3742415 21.8283912,58.5607847 C20.2016376,56.1129159 19.0814745,53.4631827 18.8769503,50.5278997 C18.8564979,50.2348513 18.9461739,49.9349042 18.9848762,49.6379565 C19.1097932,49.6307577 19.2347103,49.623859 19.3596273,49.6166602 C19.5125485,52.6455267 20.5015014,55.396942 22.2386982,57.9092995 M13.3636084,53.1341406 C15.5177197,50.29934 17.4415054,47.2089843 16.8886609,43.2622795 C16.7948944,42.5936973 16.6274993,42.0609911 16.203033,41.5066888 C15.1404513,40.120033 14.1341925,38.6883852 13.2043942,37.2174443 C12.7950312,36.5698584 12.605925,35.7899957 12.3658451,35.0551252 C12.3177033,34.9075512 12.4920208,34.6939888 12.5637616,34.5107211 C12.6855321,34.6519962 12.8790435,34.7773741 12.9174311,34.936946 C13.3126347,36.5782569 14.2411743,37.9640128 15.2030672,39.3338715 C15.4022422,39.6179215 15.636973,39.8791754 15.9796297,40.3063002 C15.6766193,39.0906143 15.4031862,38.1064877 15.2011793,37.1091634 C15.1476883,36.8458098 15.3141395,36.5416633 15.3799019,36.2564136 C15.5158318,36.5218668 15.7011622,36.7744223 15.7788813,37.054273 C16.053573,38.0434988 16.2914503,39.0420229 16.543487,40.0372476 C16.7461233,39.9232677 16.7725541,39.8527801 16.7722394,39.7825925 C16.7593387,35.0596244 16.7508431,30.3366563 16.7124555,25.6139882 C16.7102529,25.3293383 16.5246079,25.0044956 16.3295233,24.769337 C15.5989001,23.8883922 14.7905577,23.0644373 14.0825895,22.1678952 C13.1656919,21.0064998 12.317074,19.795913 11.5027532,18.6930073 C10.4562188,20.4818922 9.39993023,22.2797755 8.35748634,24.0845576 C8.27504737,24.2270325 8.25994405,24.4189987 8.25994405,24.5878689 C8.26183196,27.1851114 8.21935387,29.7835537 8.29833166,32.3789966 C8.34615884,33.9501198 8.58466548,35.516144 8.73727196,37.0845677 C9.80897854,35.4615536 10.4974383,33.7614531 10.778423,31.9194775 C10.815552,31.6759204 10.9486501,31.445261 11.0373821,31.2086027 C11.1493984,31.2406971 11.2617294,31.2727914 11.3740603,31.3048858 C11.3913662,33.0832725 10.6708119,34.7128855 10.0474852,36.3670941 C10.1724022,36.287908 10.2570438,36.1976239 10.3303578,36.0995412 C11.5335892,34.4891249 12.5990027,32.8091208 13.267954,30.9206534 C13.3305699,30.7439846 13.5822919,30.6285049 13.7462259,30.4845303 C13.7654197,30.6830953 13.8078978,30.8831601 13.795941,31.0799254 C13.7874454,31.2242 13.7109848,31.365775 13.6587525,31.5064503 C12.7462601,33.9675168 11.2013161,36.066847 9.49243808,38.0659948 C9.15733311,38.4580258 8.95658479,38.8239613 9.0692304,39.3464693 C9.70734577,42.2994491 10.2850478,45.2647268 10.9684732,48.2081083 C11.350776,49.8539184 11.8973275,51.4649347 12.3699356,53.0915481 C12.4448229,53.0888486 12.5193956,53.0861491 12.5942829,53.0834496 C12.8261818,52.1185195 13.120382,51.162288 13.2723591,50.1862599 C13.4136381,49.27742 13.3909832,48.346384 13.4715342,47.4273459 C13.4850643,47.2704735 13.653718,47.125599 13.750631,46.9750255 C13.8563543,47.1225995 13.9941721,47.2587756 14.0580466,47.4213469 C14.1099642,47.5536236 14.0932876,47.7200943 14.0737792,47.8670684 C13.8352726,49.6622522 13.5907875,51.4565361 13.3636084,53.1341406 M26.4084737,57.4848743 C27.1205324,56.8297897 27.8234662,56.1654067 28.5496843,55.5250195 C28.751062,55.3474508 29.0219778,55.2415694 29.2607991,55.1029938 C29.1579077,55.3780454 29.1371406,55.737682 28.9379656,55.914051 C27.9615987,56.7793985 26.9292237,57.5868563 25.9358656,58.4351069 C25.6142907,58.7095585 25.2920865,59.0116053 25.0702564,59.3595441 C23.1807679,62.3227221 21.3246325,65.3050968 19.435144,68.2682748 C18.7910502,69.2781969 18.3162395,69.2398037 17.7655975,68.1710919 C15.6995889,64.1595985 13.9655387,60.0188279 12.5052362,55.7742756 C12.308893,55.2031762 12.0036801,54.8000472 11.4728612,54.4467094 C8.24704329,52.2996876 5.36419664,49.8128257 3.24186521,46.60879 C3.08800011,46.376331 2.98982851,46.1105778 2.86554076,45.8601219 C2.94766507,45.7989327 3.02978939,45.7377435 3.1119137,45.6762543 C3.30857155,45.8748193 3.54613422,46.0487887 3.69622349,46.2755487 C5.29560239,48.692523 7.36696011,50.6931706 9.67965634,52.4838552 C9.7919873,52.5705399 9.91407249,52.6458266 9.90337431,52.6386279 C9.21617314,51.2690692 8.45911911,49.8092263 7.75996115,48.3244878 C7.63158291,48.0518359 7.73919408,47.6784016 7.73762082,47.3514592 C7.92043395,47.6160126 8.12401415,47.869468 8.28228438,48.1466192 C9.09251469,49.5644694 9.87631419,50.9961172 10.7044797,52.4040692 C10.8876075,52.7154144 11.2126436,52.9508729 11.5946318,53.154537 C11.2044626,51.7927769 10.7526215,50.4436146 10.4363957,49.0662572 C9.72087583,45.9510059 9.05916152,42.8240567 8.4081454,39.6959077 C8.28385764,39.0990129 8.04283379,38.6961838 7.48558413,38.3401465 C4.69650394,36.5587603 2.21546859,34.4654291 0.500297552,31.6582235 C0.29514409,31.3228826 0.164877935,30.945849 0,30.588312 C0.106352561,30.5310221 0.212705123,30.4743321 0.319372337,30.4170422 C0.913436348,31.252695 1.45621199,32.1270409 2.11572374,32.9126026 C2.81645496,33.7479554 3.5927028,34.533817 4.40073054,35.2770861 C5.18327143,35.9966593 6.04793663,36.634347 6.93808869,37.2612366 C5.84372713,35.1163144 5.08604379,32.9287997 5.11719439,30.5625165 C5.23644771,30.5325218 5.35570103,30.5025271 5.47463969,30.4725324 C5.56085449,30.8156719 5.67853454,31.1549122 5.72793499,31.5028509 C6.01710068,33.5478907 6.58599249,35.4963475 7.96794648,37.2114454 C7.9028134,36.4720756 7.8033832,35.7336057 7.77852565,34.9927362 C7.66588004,31.6240296 7.55984213,28.255023 7.48873065,24.8854165 C7.47740316,24.3533103 7.36003776,23.9930737 6.93211029,23.599543 C4.66440938,21.5152102 3.46526851,18.8927721 2.91022142,15.9757859 C2.87309242,15.7799204 2.92406613,15.5687576 2.93413501,15.3644936 C3.03010404,15.3422975 3.12607307,15.3201014 3.22172744,15.2979053 C3.32776535,15.5870544 3.46967365,15.8693047 3.53386277,16.1662524 C3.9945141,18.2937776 4.83148988,20.2563319 6.2842407,21.9690302 C5.86889933,20.4255021 5.47495434,18.8870731 5.60301793,17.2919541 C5.70748257,17.2610595 5.81226187,17.2304649 5.91704117,17.1995704 C6.00388527,17.4479266 6.11810415,17.6908838 6.17222439,17.945239 C6.45069189,19.2590076 6.67378055,20.585074 7.00259246,21.8868447 C7.124363,22.3694597 7.48086434,22.7983842 7.83516311,23.4420708 C8.3596889,21.6519861 8.50128255,20.0562672 8.46509751,18.444651 C8.45093814,17.7985649 8.3153229,17.1554781 8.2854309,16.5084921 C8.27630598,16.3108269 8.43583482,16.1062629 8.51795914,15.9046985 C8.63500988,16.0744685 8.82474537,16.2325407 8.85746924,16.4164083 C9.19981121,18.331571 9.10478614,20.244334 8.87477513,22.208688 C9.14380305,21.7305722 9.42164126,21.2560558 9.67934169,20.7722411 C9.93955935,20.2833272 10.1673678,19.7785161 10.4316759,19.2914019 C10.936064,18.3615657 11.1097522,17.4695228 10.4829643,16.4850962 C10.1692557,15.992583 10.0924805,15.3575948 9.9452231,14.7783968 C9.91218458,14.6482198 10.0330112,14.482349 10.0830409,14.3326754 C10.215195,14.4469552 10.4140554,14.5378392 10.4675463,14.6791143 C10.7202123,15.3470967 10.9332321,16.0288766 11.3441683,16.6893602 C11.4140212,16.4179081 11.4568139,16.1359577 11.5628518,15.8777032 C11.6462348,15.674639 11.8073369,15.5006696 11.9338272,15.3138025 C11.9986456,15.5483612 12.1125498,15.78232 12.1150671,16.0177785 C12.1172696,16.2598359 12.0543391,16.5228896 11.9442107,16.7424509 C11.5795284,17.4668233 11.8098541,18.0739164 12.2528849,18.683109 C13.0263008,19.7470216 13.7698248,20.8304308 14.5259349,21.9057414 C14.5832017,21.8760466 14.6407831,21.8460519 14.6980498,21.8166571 C14.5278228,21.4558206 14.3283331,21.1045825 14.1927178,20.7320481 C13.7393035,19.4869674 13.2946995,18.2385873 12.8856512,16.980009 C12.8274404,16.8009406 12.985396,16.5579834 13.0436067,16.344421 C13.1789073,16.5222897 13.3941297,16.6839612 13.438181,16.8807265 C13.9834739,19.3063993 15.1385634,21.4783167 16.4657679,23.5806464 C16.4997503,23.633737 16.5752669,23.6631318 16.7369984,23.7795113 C16.7369984,23.4765647 16.7357397,23.2660018 16.7369984,23.0551389 C16.7618559,18.830983 16.797097,14.6068271 16.7926919,10.3826711 C16.7923772,10.026034 16.6073615,9.6079076 16.3701135,9.32325774 C14.8657596,7.52117517 13.4337759,5.67949958 12.5250593,3.52287946 C12.3611254,3.13384799 12.265471,2.71332206 12.1896397,2.29849513 C12.168558,2.18301547 12.3312334,2.0369412 12.4095819,1.90496445 C12.5115293,2.00034765 12.6619332,2.07863386 12.7066139,2.19441346 C12.860479,2.59064367 12.9539308,3.00877002 13.1125156,3.40320054 C13.8220571,5.17048924 14.9897328,6.66782549 16.2801229,8.32293395 C15.8562859,6.71611698 15.4226947,5.31656351 15.1332143,3.89031474 C14.9308927,2.89269046 14.9060352,1.85937248 14.8478245,0.839852063 C14.8352383,0.615491584 15.0177368,0.380632953 15.1102447,0.150873424 C15.2030672,0.375833798 15.3723502,0.599594384 15.3767554,0.826354441 C15.4283584,3.50518258 16.1463955,6.03973612 17.1189865,8.52239881 C17.204572,8.53829601 17.2901575,8.55449316 17.375743,8.57039036 C17.6916542,7.35650418 18.0673493,6.15281621 18.3017655,4.92453256 C18.4550013,4.12187395 18.3882949,3.28262178 18.4553159,2.46226628 C18.4694753,2.28679719 18.6352972,2.12272609 18.7309516,1.95325594 C18.8190543,2.1107282 18.9707168,2.26280142 18.9851908,2.42627262 C19.1311896,4.0636842 18.8829287,5.66030296 18.3904975,7.22812679 C18.3099464,7.48458162 18.2375764,7.74373597 18.2168093,8.02208694 C19.2092234,6.89848486 19.7932186,5.57511796 20.1758361,4.18696248 C20.4873421,3.0582613 20.6349141,1.88816741 20.8542269,0.736070344 C20.8633519,0.687178956 20.8469899,0.628689259 20.8693303,0.588196392 C20.9794587,0.389631368 21.098712,0.195865499 21.2148188,0 C21.3000896,0.201264548 21.4816441,0.415126877 21.4548987,0.601694014 C21.307012,1.63861137 21.17297,2.68392724 20.9140109,3.69834855 C20.363369,5.85586851 19.500277,7.87481288 17.7917137,9.47683069 C17.6491761,9.61030718 17.5830991,9.87576042 17.5815258,10.0806243 C17.5488019,14.2048979 17.5302374,18.3291714 17.5113583,22.453145 C17.5110436,22.4999367 17.5403063,22.5470284 17.5941119,22.7095998 C18.5003112,20.3016239 18.7463695,17.8783508 18.8300671,15.424783 C18.957816,15.4439796 19.085565,15.4634762 19.2133139,15.4826728 C19.6229915,18.2412869 18.8162224,20.8649247 18.0928362,23.5140581 C20.2359347,21.0862857 21.4577305,18.2475858 22.042355,15.1230361 C22.1505954,15.129335 22.2585213,15.135334 22.3667617,15.1413329 C22.3960244,15.3725922 22.4860151,15.6134498 22.4460542,15.8330111 C21.8296498,19.2149154 20.2456889,22.1492985 17.9071912,24.7384424 C17.7029817,24.9646026 17.5022333,25.2906452 17.5006601,25.5713957 C17.4761172,30.3198593 17.4830395,35.0683229 17.6334435,39.8599788 C17.7165117,39.7388002 17.8345064,39.6275198 17.8772992,39.4946432 C18.3366919,38.0701941 18.7778348,36.6406459 19.241318,35.2176965 C19.307395,35.0146323 19.4656653,34.8391632 19.5814574,34.6507964 C19.6491077,34.8565602 19.791016,35.0689227 19.7727661,35.2677877 C19.6085175,37.0581723 18.9269801,38.7021828 18.1494736,40.3161985 C18.0431211,40.5369596 17.9355099,40.7571208 17.9273289,41.04567 C18.4134671,40.5429585 18.950579,40.074741 19.360886,39.5213385 C19.5276518,39.2963781 19.3989589,38.8836508 19.441437,38.5609076 C19.4757341,38.3005535 19.5650955,38.0464983 19.6299139,37.7897435 C19.7645852,37.9997065 19.9011444,38.2087697 20.0317252,38.4208323 C20.0675956,38.4784222 20.0858454,38.5459103 20.1516078,38.7027827 C21.3630201,37.0839678 22.5379327,35.53894 22.7666851,33.5364927 C22.7887108,33.3442265 23.0127434,33.1729567 23.1426949,32.9917886 C23.2144357,33.1813552 23.3585466,33.375721 23.3459605,33.5598886 C23.2512501,34.9429449 22.6464879,36.1586308 21.8897485,37.3077284 C21.4869932,37.9196206 21.0043162,38.4829214 20.5748155,39.0795163 C20.4344804,39.2747819 20.348895,39.5060412 20.2381373,39.7208033 C20.3004385,39.7666953 20.3627397,39.8131871 20.4250409,39.859079 C20.7557407,39.5990248 21.0983973,39.3515684 21.4152524,39.0765168 C23.2238753,37.5053936 24.8676202,35.7992941 26.1806653,33.8172432 C26.3313839,33.5901832 26.6117393,33.4411095 26.9723311,33.1375629 C26.9723311,31.8513895 26.9927835,30.3558529 26.9528226,28.8618161 C26.9462149,28.6044614 26.7051911,28.340208 26.5371666,28.10175 C25.3137975,26.3656558 24.0495236,24.6547572 22.8708351,22.8919677 C22.5149631,22.3595615 22.3661324,21.6942786 22.1691599,21.0766874 C22.107488,20.8835215 22.198108,20.6462632 22.235237,20.2599313 C23.2528233,22.1882916 24.1760139,23.9378834 25.0992045,25.6871753 C25.1948589,25.6439829 25.2908279,25.6007905 25.3867969,25.5572982 C25.1045536,24.9181108 24.76819,24.2951205 24.551709,23.6361366 C24.1313332,22.3553622 23.7638191,21.0577908 23.4148694,19.7575198 C23.3692448,19.5874497 23.5621268,19.3594899 23.6445657,19.1582254 C23.7587846,19.324696 23.9475761,19.4800687 23.9762095,19.6585372 C24.3830553,22.1879917 25.4855978,24.462491 26.7722121,26.7819825 C26.7722121,25.7042723 26.8382891,24.7273444 26.7593113,23.7609146 C26.5519553,21.2218619 26.3134487,18.6843088 26.0120115,16.1542545 C25.9459345,15.6011519 25.6347431,15.0411506 25.3182026,14.5543363 C24.1495831,12.7576528 22.9101667,11.0026619 21.7478402,9.20237904 C21.4832174,8.79235126 21.3932268,8.26954335 21.2799518,7.78602852 C21.2387324,7.61025948 21.3639641,7.39879673 21.4608771,7.0157642 C22.0845184,8.41411789 22.6087296,9.58931088 23.1332554,10.7645039 C23.2031082,10.7420078 23.2732757,10.7198117 23.3434433,10.6973157 C23.1703844,9.90095599 22.9853687,9.10669589 22.8299303,8.3073367 C22.7537844,7.91590564 22.6990348,7.51457634 22.7009228,7.11804618 C22.7015521,6.94467672 22.8683179,6.77190716 22.9595671,6.59883764 C23.053019,6.7518107 23.1946126,6.89488549 23.2320563,7.05895659 C23.4979377,8.22665091 23.676975,9.41624137 24.0114506,10.5647391 C24.3978439,11.8923052 25.0532652,13.1109906 26.1617861,14.2405916 C26.5396838,12.4568058 26.773156,10.7783014 26.588455,9.06320355 C26.5459769,8.6666734 26.4380511,8.2749424 26.4213745,7.87841225 C26.4138228,7.70414295 26.559507,7.52357475 26.6356529,7.34600603 C26.7517597,7.48398173 26.9540812,7.6135589 26.9698139,7.76113291 C27.0755371,8.75215834 27.1966784,9.74678314 27.2039154,10.741108 C27.2102084,11.609455 27.0736492,12.4793018 26.989637,13.471527 C27.152627,13.2705624 27.2662166,13.1613817 27.3426771,13.0318045 C28.4729091,11.1112428 29.4577716,9.13699056 29.8731129,6.94317699 C29.9099273,6.74851128 30.1327013,6.58593991 30.2692605,6.40837119 C30.3296738,6.62103373 30.4929785,6.86519072 30.4341384,7.0418596 C29.9281771,8.55629284 29.4011341,10.0647271 28.8372768,11.5602637 C28.653205,12.0485777 28.4096639,12.5440904 28.0767615,12.949319 C26.8939826,14.3887655 26.6910317,15.9334934 26.9392926,17.7448743 C27.3420478,20.6864562 27.4260601,23.667631 27.6460022,26.6317089 C27.6567004,26.7753836 27.680614,26.9178585 27.7221481,27.2502 C30.0257194,24.7234451 30.7126059,21.7989602 30.9775434,18.6351175 C31.8680101,19.4332769 31.290308,21.8541505 29.2711826,26.4544402 C31.2075544,24.8068304 32.813541,23.0899328 34.1744133,21.1675714 C34.6567756,20.4857915 35.0626774,19.7551202 35.539376,19.069141 C35.6551682,18.9023704 35.9128686,18.825284 36.105436,18.7071048 C36.0843542,18.9257663 36.1337547,19.1813213 36.0321219,19.3576902 C34.1404308,22.6421117 31.6147148,25.422022 28.5459085,27.7484122 C27.9634866,28.1896345 27.7098767,28.6212585 27.724036,29.3606282 C27.8391989,35.3643707 27.5204558,41.3459171 26.5289857,47.284571 C26.4887101,47.5269283 26.4849343,47.7749846 26.4515811,48.1649159 C27.7315877,46.8970393 28.6852996,45.5799713 29.4061686,44.1147294 C29.4939566,43.9362608 29.3769059,43.645612 29.306109,43.4206516 C28.8794402,42.0648904 28.4348361,40.7142283 28.006594,39.3587671 C27.954991,39.194696 27.9150301,38.9982306 27.9625427,38.842558 C28.0169776,38.6643894 28.1752478,38.5147158 28.2882081,38.3527443 C28.3763108,38.507817 28.5043744,38.6538913 28.5462231,38.8197621 C28.8967461,40.2115169 29.2312217,41.6068711 29.5638095,42.9719307 C30.0058963,42.8798469 30.2223773,42.8345549 30.4391729,42.7895628 C30.4322505,42.9749301 30.4917198,43.1953913 30.407393,43.3393659 C29.9118152,44.1885164 30.7928423,44.6330381 30.9356946,45.274925 C30.8236783,43.5220338 30.6701278,41.7706423 30.6185248,40.0159513 C30.5955552,39.2258905 30.748791,38.4262314 30.8803157,37.63947 C30.9221645,37.3890141 31.1515462,37.1667532 31.2953425,36.9315946 C31.3403378,37.1889493 31.4633669,37.4592017 31.418057,37.7012591 C31.0650168,39.5945256 31.1641323,43.0487171 31.6880288,45.0190701 C31.8305664,44.7719136 31.9545395,44.6018436 32.0325734,44.4143766 C33.340584,41.2643315 34.6334913,38.1082874 35.9562907,34.9639412 C36.1589269,34.482526 36.0522597,34.1267887 35.7822878,33.7182607 C34.1885726,31.3057856 33.0268754,28.7313391 32.7257529,25.8644441 C32.6832748,25.4592155 32.8377693,25.0350902 32.9010144,24.6196633 C33.5759441,24.8323259 33.2194428,25.3758301 33.2669553,25.7588627 C33.5894742,28.3543055 34.5803151,30.7061912 36.0185919,32.9123026 C35.7001635,30.1827834 35.3005547,27.4634624 36.1485434,24.791833 C36.3011498,24.792133 36.4537563,24.7927329 36.6063628,24.7930328 C36.1523192,27.3617803 36.1306082,29.9167303 36.6818794,32.6516485 C36.8650072,32.1261411 37.0025104,31.7653047 37.1173586,31.3978694 C38.5417906,26.8482708 39.6874406,22.243182 40.0291532,17.4899192 C40.0558987,17.1203843 39.8711977,16.6617651 39.6260833,16.3621179 C38.1736472,14.5858308 36.7643184,12.7891472 35.9100367,10.6628218 C35.7615207,10.2929869 35.6548535,9.90335556 35.5812248,9.5137242 C35.5582552,9.39314543 35.7086591,9.2428719 35.7797706,9.106096 C35.8930455,9.21137745 36.0768026,9.30016181 36.1085825,9.42433994 C36.6642589,11.5929579 38.0182088,13.3431497 39.3567407,15.1017399 C39.4319427,15.2007225 39.5291703,15.2841078 39.7418755,15.5066686 C38.8844473,12.7603523 37.9861142,10.1823064 38.5373855,7.40659536 C38.8328443,10.3142832 39.4096024,13.1511835 40.6046528,15.9004992 C40.6918115,15.8375103 40.7906124,15.799417 40.8346638,15.7298293 C41.9444433,13.9631404 42.7867682,12.0962693 43.1970751,10.0617277 C43.2417558,9.84156645 43.458866,9.65349957 43.5957399,9.45043534 C43.6504894,9.69009313 43.8125355,9.96424484 43.7429973,10.1646095 C43.1936139,11.7429315 42.604899,13.3089557 42.0155548,14.8743799 C41.9132927,15.1458321 41.7503027,15.396588 41.6675491,15.6899363 C43.1086577,14.6704159 44.2725575,13.4217358 45.2171445,11.9819894 C45.2589932,11.9184006 45.2851094,11.8377148 45.3426908,11.7933227 C45.5563399,11.6283517 45.7800579,11.4756786 46,11.3182063 C45.9436772,11.5842595 45.9584659,11.8905055 45.8203334,12.1100669 C44.6466794,13.9781378 43.0661796,15.4952706 41.2868195,16.8426332 C41.0719118,17.0055045 40.8626678,17.2997527 40.8393836,17.5490088 C40.3516721,22.7680895 39.099355,27.8311976 37.4659936,32.8187191 C37.3964554,33.0304818 37.3275465,33.2425445 37.4118733,33.5724863 C38.310521,32.6081562 39.2453537,31.6714212 40.0942863,30.6686978 C40.5829417,30.0915995 40.9205639,29.3999213 41.3510086,28.7754313 C41.4872532,28.5777661 41.7034195,28.4301921 41.9878654,28.3498063 C41.5319338,30.0562057 40.3601677,31.3111847 39.2327676,32.5925589 C39.2975861,32.6537482 39.3620898,32.7146374 39.4269083,32.7758267 C40.3960381,31.9344749 41.3661119,31.0946228 42.3324099,30.2502715 C42.4277496,30.1668862 42.4796673,30.0256111 42.5857052,29.9683212 C42.7260402,29.8927345 42.9000431,29.8735379 43.0598866,29.8300456 C43.0454126,30.0004155 43.10205,30.2397734 43.0054517,30.3303574 C42.1121531,31.1702095 41.2389923,32.0397563 40.2651427,32.7881245 C39.4967611,33.3787205 38.6270615,33.8733333 37.7416292,34.2947591 C37.0537987,34.6223014 36.692263,35.0743218 36.423235,35.7465034 C35.1828747,38.8413582 33.8843036,41.9152168 32.6055557,44.9962741 C32.5127332,45.2203346 32.412359,45.4410957 32.2405587,45.8364261 C34.5057424,44.7371197 36.2161937,43.2460824 37.8838522,41.675559 C37.6088458,42.7160757 36.8382617,43.361862 36.0723974,43.9887516 C35.2870247,44.6318383 34.4428119,45.2095365 33.4390703,45.9528056 C35.8260245,45.2575281 37.8108528,44.292898 39.6377255,43.0229217 C39.7220524,42.964132 39.7862415,42.8585506 39.8774907,42.8333551 C40.0952303,42.7730657 40.323668,42.7475702 40.5477006,42.7082771 C40.4551928,42.8852459 40.4111414,43.1297029 40.2613668,43.2274856 C39.3353444,43.8333789 38.4401579,44.5172585 37.4316965,44.9641797 C35.7539691,45.7083487 34.0067035,46.313942 32.27108,46.9321331 C31.7975279,47.1007034 31.4992373,47.3208646 31.2808684,47.7647864 C30.41463,49.5248764 29.5131504,51.2693691 28.6038046,53.0096626 C27.8404575,54.4701053 27.0478477,55.9164505 26.2684533,57.3690947 C26.3153366,57.4077878 26.3619052,57.446481 26.4084737,57.4848743" id="Fill-1" fill="#FEFEFE" mask="url(#mask-2)"></path>
            </g>
        </g>
    </g>
</svg>