<?xml version="1.0" encoding="UTF-8"?>
<svg width="43px" height="43px" viewBox="0 0 43 43" version="1.1" xmlns="http://www.w3.org/2000/svg" xmlns:xlink="http://www.w3.org/1999/xlink">
    <!-- Generator: Sketch 51.3 (57544) - http://www.bohemiancoding.com/sketch -->
    <title>ios-globe-outline</title>
    <desc>Created with Sketch.</desc>
    <defs></defs>
    <g id="Page-1" stroke="none" stroke-width="1" fill="none" fill-rule="evenodd">
        <g id="Desktop-HD-Copy-5" transform="translate(-1004.000000, -3650.000000)" fill="#000000" fill-rule="nonzero">
            <path d="M1025.5,3650 L1025.44832,3650 C1013.59231,3650.03101 1004,3659.64399 1004,3671.5 C1004,3683.35601 1013.59231,3692.96899 1025.44832,3693 L1025.5,3693 C1037.37668,3693 1047,3683.37668 1047,3671.5 C1047,3659.62332 1037.37668,3650 1025.5,3650 Z M1026.35793,3662.86899 C1028.64231,3662.80697 1030.85433,3662.50721 1032.99399,3661.99038 C1033.63486,3664.52284 1034.03798,3667.44808 1034.1,3670.6524 L1026.35793,3670.6524 L1026.35793,3662.86899 Z M1026.35793,3661.14279 L1026.35793,3651.86058 C1028.67332,3652.50144 1031.03005,3655.59207 1032.51851,3660.33654 C1030.53389,3660.81202 1028.47692,3661.08077 1026.35793,3661.14279 Z M1024.64207,3651.8399 L1024.64207,3661.15313 C1022.5024,3661.09111 1020.42476,3660.81202 1018.42981,3660.3262 C1019.93894,3655.55072 1022.30601,3652.43942 1024.64207,3651.8399 Z M1024.64207,3662.86899 L1024.64207,3670.64207 L1016.84832,3670.64207 C1016.91034,3667.43774 1017.31346,3664.5125 1017.95433,3661.98005 C1020.10433,3662.49687 1022.34736,3662.80697 1024.64207,3662.86899 Z M1015.11178,3670.64207 L1005.74688,3670.64207 C1005.93293,3666.21803 1007.58678,3662.16611 1010.2226,3658.96178 C1012.13486,3660.01611 1014.17115,3660.88438 1016.30048,3661.52524 C1015.5976,3664.26442 1015.18413,3667.35505 1015.11178,3670.64207 Z M1015.11178,3672.35793 C1015.1738,3675.63462 1015.58726,3678.73558 1016.29014,3681.47476 C1014.16082,3682.12596 1012.13486,3682.98389 1010.21226,3684.03822 C1007.57644,3680.83389 1005.93293,3676.78197 1005.73654,3672.35793 L1015.11178,3672.35793 Z M1016.84832,3672.35793 L1024.64207,3672.35793 L1024.64207,3680.12067 C1022.34736,3680.18269 1020.10433,3680.49279 1017.95433,3681.01995 C1017.31346,3678.4875 1016.91034,3675.56226 1016.84832,3672.35793 Z M1024.64207,3681.84688 L1024.64207,3691.17043 C1022.30601,3690.56058 1019.93894,3687.45962 1018.42981,3682.68413 C1020.42476,3682.18798 1022.5024,3681.90889 1024.64207,3681.84688 Z M1026.35793,3691.13942 L1026.35793,3681.83654 C1028.47692,3681.89856 1030.53389,3682.17764 1032.52885,3682.65312 C1031.03005,3687.40793 1028.68365,3690.49856 1026.35793,3691.13942 Z M1026.35793,3680.12067 L1026.35793,3672.35793 L1034.1,3672.35793 C1034.03798,3675.55192 1033.63486,3678.47716 1032.99399,3681.00962 C1030.85433,3680.49279 1028.64231,3680.18269 1026.35793,3680.12067 Z M1035.8262,3672.35793 L1045.25312,3672.35793 C1045.06707,3676.78197 1043.41322,3680.82356 1040.7774,3684.03822 C1038.84447,3682.97356 1036.79784,3682.10529 1034.64784,3681.45409 C1035.35072,3678.7149 1035.76418,3675.63462 1035.8262,3672.35793 Z M1035.8262,3670.64207 C1035.76418,3667.36538 1035.35072,3664.27476 1034.65817,3661.53558 C1036.80817,3660.88438 1038.85481,3660.01611 1040.7774,3658.96178 C1043.41322,3662.16611 1045.06707,3666.21803 1045.25312,3670.6524 L1035.8262,3670.6524 L1035.8262,3670.64207 Z M1039.59904,3657.6387 C1037.88317,3658.54832 1036.08462,3659.30288 1034.19303,3659.87139 C1033.19038,3656.63606 1031.77428,3654.00024 1030.1101,3652.2637 C1033.76923,3653.14231 1037.03558,3655.04423 1039.59904,3657.6387 Z M1020.82788,3652.28438 C1019.1637,3654.01058 1017.75793,3656.64639 1016.76563,3659.86106 C1014.89471,3659.29255 1013.10649,3658.54832 1011.4113,3657.6387 C1013.94375,3655.05457 1017.18942,3653.16298 1020.82788,3652.28438 Z M1011.40096,3685.35096 C1013.09615,3684.44135 1014.89471,3683.69712 1016.75529,3683.12861 C1017.75793,3686.35361 1019.1637,3688.97909 1020.82788,3690.71563 C1017.18942,3689.83702 1013.94375,3687.94543 1011.40096,3685.35096 Z M1030.1101,3690.7363 C1031.78462,3688.99976 1033.19038,3686.36394 1034.20337,3683.11827 C1036.09495,3683.68678 1037.89351,3684.44135 1039.60938,3685.35096 C1037.04591,3687.95577 1033.76923,3689.85769 1030.1101,3690.7363 Z" id="ios-globe-outline"></path>
        </g>
    </g>
</svg>