<?xml version="1.0" encoding="UTF-8"?>
<svg width="45px" height="68px" viewBox="0 0 45 68" version="1.1" xmlns="http://www.w3.org/2000/svg" xmlns:xlink="http://www.w3.org/1999/xlink">
    <!-- Generator: Sketch 51.3 (57544) - http://www.bohemiancoding.com/sketch -->
    <title>Group 3</title>
    <desc>Created with Sketch.</desc>
    <defs>
        <polygon id="path-1" points="0 0 45 0 45 68 0 68"></polygon>
    </defs>
    <g id="Page-1" stroke="none" stroke-width="1" fill="none" fill-rule="evenodd">
        <g id="Desktop-HD-Copy-5" transform="translate(-158.000000, -1666.000000)">
            <g id="Group-3" transform="translate(158.000000, 1666.000000)">
                <mask id="mask-2" fill="white">
                    <use xlink:href="#path-1"></use>
                </mask>
                <g id="Clip-2"></g>
                <path d="M34.2508165,4.89660498 C35.0643494,3.68385343 34.9758528,2.3161487 34.0203203,1.38042597 C33.8386998,2.58345721 33.3733693,3.73788691 34.2508165,4.89660498 Z M30.7716835,6.20398661 C31.6508659,7.22318965 32.5375676,8.09658805 33.9737584,8.21351766 C33.5202853,6.9941906 32.1769293,6.14452119 30.7716835,6.20398661 Z M34.7800612,10.1081203 C34.8543868,10.1186983 34.9284232,10.1287045 35.0027488,10.1387107 C35.175404,9.58007882 35.2754689,8.98542459 35.5354639,8.46996229 C36.1326717,7.28694345 35.3616519,6.55506132 34.7066032,5.57674076 C34.584848,5.94411128 34.4240501,6.17253855 34.4616468,6.36322815 C34.5880292,7.00991463 34.7884481,7.64230653 34.9530056,8.28184571 C35.0099789,8.5031257 35.1077301,8.73870026 35.0770744,8.95254707 C35.0212579,9.34393247 34.8835965,9.72359633 34.7800612,10.1081203 Z M36.2087326,12.6788563 C37.4274413,11.3265897 37.528663,9.44485216 36.4340231,8.17149161 C35.8984159,9.65955664 35.2890615,11.1001637 36.2087326,12.6788563 Z M10.4486883,26.0091172 C10.9316602,28.3580014 12.6102045,29.6871108 14.5383325,29.2682798 C13.6149017,27.6658582 12.397639,26.4279482 10.4486883,26.0091172 Z M33.474591,19.2337756 C34.7786152,17.3131568 33.9147606,14.7958825 32.5242642,13.8427204 C32.0201804,16.0189262 32.1167748,17.8752194 33.474591,19.2337756 Z M19.5511182,26.5202911 C21.3962444,25.7129337 22.4668803,23.5221475 22.0365437,21.3805346 C21.2620534,22.006351 20.4976853,22.6132985 19.7498018,23.2399726 C19.6425069,23.3300284 19.5623972,23.5129989 19.5597943,23.6542293 C19.5435988,24.6102503 19.5511182,25.5668431 19.5511182,26.5202911 Z M36.9430234,18.2157161 C37.5801414,17.8220436 38.1929663,17.4672523 38.7812087,17.0764387 C40.1641858,16.1581553 40.4189751,15.2021343 39.7338491,13.6025716 C37.6648784,14.7987415 36.7845392,16.2199079 36.9430234,18.2157161 Z M13.8665099,23.9321158 C13.657704,21.0083039 9.61780308,20.4368069 7.77961778,21.2244378 C8.68772065,22.4606325 11.3244002,23.2854293 13.8665099,23.9321158 Z M8.86268952,18.2728944 C8.86384634,18.1831245 8.86529236,18.0933546 8.86644918,18.0038706 C6.64564601,16.3445566 4.12840798,16.3691432 1.49664488,16.8368616 C2.45275574,17.4638216 3.41783194,18.2580281 4.47950253,18.4152684 C5.90123302,18.6259704 7.39786753,18.3435096 8.86268952,18.2728944 Z M11.4062452,10.8045519 C10.3607701,13.209185 11.3458014,15.284471 12.1090127,17.5098501 C13.8199479,14.4994131 13.6102745,12.4838783 11.4062452,10.8045519 Z M41.9746074,19.4753539 C39.579703,19.4953663 37.8025399,20.7052589 36.0401262,22.0798251 C38.5307574,23.5204321 40.7544526,22.5369655 41.9746074,19.4753539 Z M18.5264658,22.6904892 L18.2820878,22.5758467 C17.6224118,23.5507366 16.9468295,24.5159062 16.3065302,25.5033752 C15.4880808,26.7653001 16.2452188,28.0080703 17.2386371,28.5890017 C18.6861068,26.8316269 19.3142595,24.9110081 18.5264658,22.6904892 Z M18.3254685,14.9085238 C15.1638823,15.7464716 14.5166421,19.4327561 15.6685446,20.889373 C17.3057326,19.2489279 18.5819931,17.4283711 18.3254685,14.9085238 Z M33.2012925,22.1781717 C32.3469817,22.8597369 31.5510903,23.4701152 30.7835409,24.1130851 C29.9757921,24.7897902 29.9543909,26.3424667 30.715867,27.0780654 C31.3350544,27.6764362 32.2821999,27.4643047 33.0688367,26.5403036 C34.2693256,25.1294292 33.862993,23.6722405 33.2012925,22.1781717 Z M8.18045554,49.3547276 C8.14256972,49.3798861 8.1043947,49.4050445 8.06650888,49.430203 C10.3035075,54.3515385 12.5402169,59.2725881 14.8341889,64.31943 C14.8622418,64.1001513 14.8876918,64.0306796 14.876702,63.9672117 C14.3263454,60.7826668 13.7765672,57.597836 13.2143532,54.4152923 C13.1582475,54.0982387 13.1218077,53.6899857 12.9127126,53.5007255 C11.3585264,52.0935678 9.76298386,50.731295 8.18045554,49.3547276 Z M14.0244157,67.2075055 C14.0339594,67.1551874 14.043214,67.1028692 14.0527577,67.0505511 C10.458232,65.1162095 6.86370638,63.1818679 3.26918071,61.2472404 C3.87477543,62.7590344 4.68888676,64.1356018 5.25399282,65.6059416 C5.75923349,66.9207564 6.50133284,67.34845 7.91756844,67.2452432 C9.94315841,67.0974373 11.9881251,67.2075055 14.0244157,67.2075055 Z M15.8510328,33.7181803 C15.8157498,33.7027422 15.7804668,33.6873041 15.745473,33.67158 C13.1501497,37.9599519 10.5548264,42.2483237 7.95979233,46.5364097 C9.09405331,46.1673238 10.0735897,45.5803886 11.1349711,45.2496122 C12.7151858,44.7570212 13.3771755,43.7589742 13.7036876,42.1880006 C14.2951113,39.339664 15.1222368,36.5390713 15.8510328,33.7181803 Z M18.5426612,28.1390086 C18.2054485,28.6144461 17.9923046,28.9921087 17.6993402,29.2940101 C17.5616788,29.4355263 17.2137655,29.5475958 17.0564381,29.4738358 C15.5158445,28.7513881 14.8266696,26.9328325 15.4990706,25.3821573 C15.7055628,24.9052903 16.0268692,24.4778826 16.2507137,24.0067335 C16.3328479,23.8343409 16.3114467,23.5990523 16.2926484,23.3966411 C16.218612,22.6010052 15.4976246,22.224772 15.1025709,21.6361215 C14.5522143,20.815613 14.0151611,19.985956 13.4517903,19.1745961 C13.2753754,18.9207245 13.031865,18.7128814 12.8719348,18.5407747 C12.7021716,18.8255226 12.5717403,19.0448014 12.4413089,19.2640801 C12.2429145,19.0865415 11.932887,18.9433099 11.8652131,18.7260324 C11.4820168,17.4975568 10.5611889,16.7562403 9.50819449,16.1710204 C9.00295381,15.8899891 8.75423774,15.5120406 8.54138306,15.0225945 C7.77065243,13.2503533 6.28818895,12.287185 4.43149455,11.5244266 C4.89451133,12.4449971 5.26613942,13.2343434 5.68201583,14.0002466 C6.34545149,15.2232903 7.31110611,16.161586 8.5136194,16.8783159 C9.17127097,17.2702731 9.80752139,17.6999679 10.4330712,18.1410985 C11.0140836,18.5510668 11.0028046,18.5702215 10.7303737,19.1940367 C11.3105184,19.928206 11.849596,20.7001129 12.8314461,20.9476949 C12.8982524,20.9645625 12.9558042,21.0191678 13.0162479,21.058049 C14.2595391,21.8619758 14.7430894,23.1696433 14.80469,24.4707353 C14.8336105,25.0836866 14.6629797,25.8109944 14.6942138,26.4922738 C14.7422218,27.5472133 14.7870485,28.5921465 15.6801128,29.3952156 C16.1798586,29.844637 15.7900106,30.118521 15.1375647,30.3049222 C15.4322643,30.5093346 15.6081008,30.734903 15.7608009,30.7203225 C16.8473431,30.6179734 17.929258,30.4664509 19.0276576,30.3289371 C18.8850797,29.6851096 18.7326688,28.996397 18.5426612,28.1390086 Z M30.4026583,47.6330893 L30.3543611,47.8818148 C34.5290315,51.3911325 38.703991,54.9004501 42.8789506,58.4097677 C40.9273971,54.8587099 38.8786707,51.3985656 36.8091216,47.9507147 C36.7119488,47.789186 36.4305526,47.6490992 36.233315,47.6468121 C34.2901484,47.6242266 32.3464033,47.6330893 30.4026583,47.6330893 Z M37.8566212,66.363268 C37.8965314,66.3315341 37.9367309,66.300086 37.9772195,66.2683521 C35.3364911,60.8887325 32.6960518,55.5088271 30.0556126,50.1289217 C30.5140021,54.1476979 31.0851815,58.1201597 31.6740023,62.0900484 C31.7008983,62.2710177 31.8498388,62.4857222 32.0065878,62.5880713 C33.9494652,63.8568576 35.9047784,65.1076327 37.8566212,66.363268 Z M30.1128751,46.8706168 C32.2686072,46.8706168 34.2620955,46.8849113 36.2544269,46.8460301 C36.4305526,46.8425994 36.6801363,46.5226869 36.7605352,46.3016928 C37.7496154,43.5791484 38.7144024,40.8477415 39.6835275,38.1180498 C40.0007851,37.224639 40.3134154,36.3295129 40.6280701,35.4352444 C40.5910519,35.4189486 40.5540337,35.4023669 40.5173047,35.3857852 C37.076636,39.1841391 33.635678,42.9822071 30.1128751,46.8706168 Z M35.0177875,11.8832204 C34.9191687,13.3509871 34.6603304,14.6643725 34.7898941,15.9391625 C34.9365209,17.381199 34.8746311,18.7834966 34.0064385,19.8821774 C33.2996221,20.7767318 33.6507167,21.305631 34.0061493,22.1055553 C34.7378373,23.7517183 35.0021704,25.4404791 33.6909161,26.9997311 C32.3874704,28.5504064 30.960245,28.5807109 29.5683026,26.9242558 C29.3513991,28.1613081 29.1556075,29.2791437 28.9734085,30.3189309 C30.7618506,30.682299 32.3498738,31.0050704 34.0249476,31.3455671 C33.9983408,28.3385608 34.5640252,25.5634124 36.3614327,23.1279031 C36.0488024,22.9709487 35.8113653,22.8591652 35.5805799,22.7350883 C34.7187498,22.2710864 34.6967702,22.0735354 35.4596923,21.503182 C35.9007295,21.1735491 36.3397423,20.8353395 36.8108568,20.5508775 C37.5439908,20.1074599 37.7296603,19.4087412 37.8901689,18.5828008 C37.4473965,18.821806 37.1049781,19.0613831 36.7238062,19.1848882 C36.573709,19.2334897 36.1720036,19.0316504 36.1662195,18.9284435 C36.0881342,17.5461583 35.9655114,16.0701008 36.9875609,14.9945771 C37.763208,14.1780711 37.5885284,13.4430442 37.380301,12.5098945 C37.0416422,12.9438777 36.7778875,13.3123918 36.4814526,13.6537462 C36.1595678,14.0242615 35.8616869,13.9896686 35.6670521,13.5245232 C35.4614275,13.0322181 35.2737337,12.5327658 35.0177875,11.8832204 Z M37.678471,67.1723408 C35.5921481,65.831224 33.6880241,64.6253339 31.8084825,63.3834214 C31.4238402,63.1295498 31.1022445,63.1046772 30.6823193,63.2424769 C27.8556322,64.1699088 25.0228718,65.0784718 22.1918466,65.9924668 C21.0671294,66.3552631 19.9415446,66.7154863 18.8162489,67.0774249 C18.8269495,67.1088729 18.8376501,67.1406069 18.8483507,67.1723408 L37.678471,67.1723408 Z M39.1450283,66.8781585 C40.8733158,64.6836557 42.5073225,62.6089414 44.1633088,60.5067815 C39.5756541,56.6501058 35.0522028,52.8471777 30.5290408,49.0445354 C30.4966498,49.0682644 30.4639697,49.0922793 30.4315788,49.1162942 C33.317842,54.9999403 36.2046837,60.8838724 39.1450283,66.8781585 Z M7.53581819,47.752306 C9.39771828,49.3773131 11.1612888,50.8853905 12.8823461,52.4392105 C13.3320595,52.8454623 13.6872029,52.9432372 14.2716857,52.7116651 C17.6559595,51.3694047 21.0587425,50.072887 24.4548737,48.7595016 C25.4691147,48.3672585 26.4813313,47.971013 27.6051809,47.5335991 C27.3046971,47.4526918 27.1450561,47.3963712 26.9807878,47.3672102 C22.8460277,46.6347563 18.7115568,45.9017306 14.5747723,45.1801406 C14.1565822,45.1072383 13.6565472,44.9528569 13.3112368,45.1015204 C11.4042207,45.9220289 9.5333553,46.8245882 7.53581819,47.752306 Z M29.5818952,46.0626875 C29.6385794,46.0784115 29.6952635,46.0941356 29.7516584,46.1098596 C33.4826887,41.9907355 37.2134298,37.8716114 41.0210994,33.6675775 C37.3117594,32.8699404 33.7377673,32.1014642 30.1215513,31.3238394 C29.9396415,36.2912034 29.760913,41.1768025 29.5818952,46.0626875 Z M6.8651524,48.6783084 C5.4729208,52.424916 4.13650571,56.0365827 2.78447357,59.6428176 C2.59909334,60.1379816 2.98055438,60.2060237 3.2561665,60.3546873 C6.97186895,62.3587864 10.689885,64.3583112 14.4081903,66.3575502 C14.5629149,66.4407446 14.7263155,66.5076432 15.036343,66.6528761 C12.2915009,60.6148485 9.61548945,54.7286293 6.8651524,48.6783084 Z M3.23592217,34.51982 C4.46851275,38.5637546 5.68432946,42.553084 6.94641893,46.6945076 C10.0683841,41.5393129 13.0885491,36.55308 16.1870887,31.4370524 C11.8010096,32.481128 7.56589548,33.4891813 3.23592217,34.51982 Z M17.8034539,31.2792403 C21.4853194,36.2912034 25.0662525,41.1653669 28.6468963,46.0398162 C28.6957719,46.0255216 28.7446475,46.0112271 28.7935231,45.9972184 C28.9765897,41.0978965 29.1596563,36.1985746 29.3435905,31.2792403 L17.8034539,31.2792403 Z M28.2483722,46.8154397 C24.5086658,41.726 20.8898469,36.800662 17.1724092,31.740955 C16.0638875,36.0304704 15.0048197,40.1287245 13.9336054,44.2735788 C18.7104,45.1218187 23.364861,45.9483309 28.2483722,46.8154397 Z M28.0016806,48.3904157 L27.9235953,48.2511866 C23.2448411,50.0583065 18.5657976,51.8651405 13.885019,53.6728322 C14.6271183,57.9569156 15.3567819,62.1672391 16.1173903,66.5565306 C20.1523748,60.3887084 24.0768831,54.3895621 28.0016806,48.3904157 Z M28.8987937,48.4418762 C24.8345995,54.6562988 20.8901361,60.6877508 16.8279664,66.8990286 C21.6652048,65.3417778 26.2858289,63.8539987 30.9113694,62.3647901 C30.2389684,57.713622 29.5827629,53.1736657 28.8987937,48.4418762 Z M13.8740292,26.7267048 C13.8760536,26.7015463 13.8884894,26.6077739 13.8899355,26.5142874 C13.9159639,24.8544016 13.8503144,24.7877889 12.2883196,24.3103502 C10.4507127,23.7488594 8.58939104,23.2219614 7.18154238,21.8002232 C7.01322523,21.6301178 6.8344967,21.4685891 6.67948296,21.2873339 C6.27025826,20.8081799 6.36743105,20.5385842 7.01611728,20.4528168 C8.13071233,20.3052968 9.25022386,20.1932273 10.4145621,20.0608596 C9.78264978,19.4396175 9.3011239,18.7197428 8.12753108,18.9810476 C6.97302577,19.2383499 5.72771017,19.425037 4.57146964,19.2738004 C2.82987872,19.0459449 1.49375283,17.8729323 0.198694024,16.7688195 C-0.24668127,16.3891556 0.140274667,16.0961169 0.541401637,16.0666701 C2.07331913,15.9537429 3.60841787,15.8857008 5.1429382,15.8119408 C5.37950767,15.800791 5.6192584,15.8485349 5.8882188,15.8716921 C5.01453129,14.3327384 4.15125516,12.8383837 3.32210518,11.3260179 C3.18068406,11.0687156 3.18444372,10.7339367 3.12110789,10.4351802 C3.41262626,10.4603386 3.72699181,10.4243163 3.99190335,10.5209476 C6.10598997,11.291711 8.02920147,12.2980489 9.14408573,14.3999229 C9.47030867,15.0151613 10.0212437,15.5140419 10.4692218,16.0658124 C10.5331361,16.0197839 10.5973395,15.9734694 10.6612538,15.9274409 C10.5024804,15.0960686 10.3289575,14.2672692 10.1889824,13.433038 C9.99550447,12.2800377 10.2531859,11.2222393 10.897534,10.2396304 C11.1867388,9.798214 11.4840412,9.68299974 11.8657915,10.0921104 C12.420197,10.685907 13.0393843,11.2413941 13.4850488,11.9086647 C14.4293023,13.3232556 14.0816782,14.8227563 13.5706534,16.2913807 C13.4159289,16.7356561 13.1935304,17.1567742 13.0003417,17.5933304 C13.4957494,17.9807134 13.9610798,18.3443673 14.3711721,18.6645657 C14.4165773,18.437282 14.474129,18.0175934 14.5866297,17.6127711 C15.1670636,15.5263352 16.6810504,14.444236 18.7095324,13.9636525 C18.8471938,13.9310609 19.2272089,14.2375365 19.2222924,14.3770516 C19.148256,16.4937919 18.8772711,18.5393453 17.3210604,20.2123821 C16.2356751,21.379391 16.2865751,21.4257054 17.0575949,23.0429934 C17.3719605,22.6919187 17.6331124,22.3488489 17.9460319,22.0603844 C18.8101756,21.2638908 18.9160246,21.2973401 19.3631351,22.5375373 C20.0343793,21.9940576 20.6729433,21.4811683 21.3065909,20.9619895 C21.5845167,20.734134 21.8436441,20.4831213 22.1261971,20.2609836 C22.5851651,19.8999027 22.9171721,20.0025377 22.9504306,20.5686028 C23.0999495,23.0944538 22.7566635,25.4424804 20.374484,26.9814341 C20.017027,27.2121485 19.4455584,27.384541 19.3567726,27.6921602 C19.2318361,28.1258576 19.4484505,28.6636194 19.5499613,29.1504925 C19.6364336,29.5656069 19.7668649,29.9721446 19.8865957,30.4144187 L27.978255,30.4144187 C28.4424286,28.8405862 28.8866471,27.3482328 29.3181405,25.8527346 C29.3699082,25.6737665 29.3482178,25.4747861 29.3675945,25.2858118 C29.444523,24.5433517 29.7279436,23.9038125 30.3549395,23.4555347 C31.4672209,22.6604706 32.1647827,21.5603603 32.667999,20.3341718 C32.765461,20.0971678 32.7590985,19.6877712 32.6127609,19.5042289 C31.3871112,17.9661329 31.3738078,16.2127606 31.5979415,14.4050689 C31.6592529,13.9090472 31.7003199,13.409309 31.7911302,12.9190051 C31.8911951,12.3783844 32.1630475,12.2900439 32.5633069,12.6802858 C33.0685475,13.1725909 33.5370592,13.7017759 34.0934891,14.29157 L34.0934891,9.04803482 C31.9982008,8.88107421 30.8254756,7.44561321 29.5844981,6.11964863 C29.4569588,5.9835643 29.3299979,5.66336587 29.3982502,5.57273828 C29.5136429,5.41978635 29.7880982,5.30371442 29.9914091,5.30943225 C31.2792378,5.34716992 32.5349648,5.52728154 33.7643741,6.50417264 C33.5497842,5.77657889 33.4442245,5.22423659 33.2255857,4.71992406 C32.8212775,3.78791792 32.9456355,2.85791301 33.1211828,1.91904547 C33.2131499,1.42902752 33.3109011,0.937294211 33.4500086,0.458711913 C33.6015519,-0.0636117767 33.9173634,-0.147092082 34.2730853,0.245436887 C35.3671468,1.4530424 35.8741227,2.81760232 35.4246985,4.45490269 C35.3506621,4.72421244 35.4059002,5.10330451 35.5516594,5.34202387 C35.9316744,5.96298012 36.4120435,6.52332737 36.8221358,7.12827369 C37.5691517,8.22981347 38.078152,9.37337929 37.9844497,10.7831101 C37.9251627,11.6776644 38.2268032,12.5956619 38.3942528,13.6846225 C38.8526423,13.2046107 39.2086533,12.8072216 39.5950308,12.4412805 C39.7344275,12.3089128 39.9782271,12.1473841 40.1184914,12.1879807 C40.2694563,12.2317221 40.4201319,12.4844501 40.4568609,12.6682783 C40.6104287,13.4373263 40.7547418,14.2112345 40.8391896,14.9900028 C40.9537147,16.040368 40.4875166,16.9011872 39.6074666,17.4054997 C38.7826547,17.8783642 38.6689973,18.5696498 38.6030586,19.2417806 C39.8443253,19.0636702 41.0824108,18.8463927 42.3303292,18.7220299 C43.0313615,18.6522724 43.2019923,18.9047145 42.8575495,19.5139492 C42.3086389,20.4842648 41.7400624,21.4625854 41.0358488,22.3225469 C40.2489227,23.2825704 39.1323033,23.7002578 37.8699246,23.4689716 C37.2932503,23.3631918 36.9924774,23.5716067 36.699513,24.0155961 C35.1901535,26.3010124 34.7413077,28.8274352 34.8630629,31.5476924 C36.953724,31.9976856 39.0143077,32.4413891 41.0748915,32.8853785 C41.215445,32.915683 41.3533956,32.968287 41.4956844,32.9828675 C42.1377189,33.0489084 42.2105985,33.3673915 42.0096012,33.9217351 C41.068529,36.5150565 40.154642,39.1175264 39.2317897,41.7168515 C38.6504882,43.3530083 38.0850929,44.9948829 37.4800766,46.6221771 C37.3230384,47.0441529 37.3693112,47.3629219 37.5974937,47.744587 C39.9993391,51.7562159 42.3739991,55.7838547 44.783653,59.7909093 C45.09021,60.3009397 45.0780634,60.6440094 44.7018081,61.1100125 C43.0192149,63.1941612 41.365253,65.3003236 39.7260406,67.4176357 C39.39895,67.8398974 39.0472771,68.0002825 38.5105131,67.9997107 C27.8096486,67.985702 17.1087842,67.9851303 6.40791971,67.9999966 C5.82748581,68.0008543 5.50589014,67.8393256 5.24589508,67.2964177 C4.21719384,65.1485152 3.13730335,63.0243417 2.05828048,60.90074 C1.82691669,60.445029 1.80349111,60.044781 1.98887134,59.5533335 C3.39961205,55.8153028 4.79271126,52.0704106 6.15139511,48.3135109 C6.29946794,47.9044003 6.31248215,47.3714986 6.18870252,46.9540971 C4.99284094,42.9204545 3.75417705,38.8993912 2.52737056,34.8746113 C2.24742038,33.9568997 2.2485772,33.9577574 3.17750281,33.737621 C6.82292851,32.8730852 10.4677758,32.00712 14.1123339,31.1400112 C14.2974249,31.0959839 14.4775995,31.0330878 14.6814888,30.9727647 C14.6178638,30.6994525 14.5608904,30.4547294 14.5053631,30.2162959 C14.4029847,30.1917092 14.3353107,30.1648354 14.2659016,30.1602612 C11.6031936,29.9904416 9.84858846,28.3331289 9.54608031,25.6780549 C9.51831665,25.4341895 9.60074,25.1777449 9.63226332,24.927304 C9.90295895,24.9684723 10.2017074,24.9507471 10.4397229,25.0611012 C11.5826601,25.5920016 12.7094017,26.1574949 13.8740292,26.7267048 Z" id="Fill-1" fill="#FEFEFE" mask="url(#mask-2)"></path>
            </g>
        </g>
    </g>
</svg>