<?xml version="1.0" encoding="UTF-8"?>
<svg width="75px" height="71px" viewBox="0 0 75 71" version="1.1" xmlns="http://www.w3.org/2000/svg" xmlns:xlink="http://www.w3.org/1999/xlink">
    <!-- Generator: Sketch 51.3 (57544) - http://www.bohemiancoding.com/sketch -->
    <title>Group 32</title>
    <desc>Created with Sketch.</desc>
    <defs>
        <polygon id="path-1" points="2.50032632e-05 0.204431034 74.7163968 0.204431034 74.7163968 70.9999758 2.50032632e-05 70.9999758"></polygon>
    </defs>
    <g id="Page-1" stroke="none" stroke-width="1" fill="none" fill-rule="evenodd">
        <g id="Desktop-HD-Copy-5" transform="translate(-864.000000, -1664.000000)">
            <g id="Group-32" transform="translate(864.000000, 1664.000000)">
                <g id="Group-3">
                    <mask id="mask-2" fill="white">
                        <use xlink:href="#path-1"></use>
                    </mask>
                    <g id="Clip-2"></g>
                    <path d="M57.6852024,33.588019 C57.329332,34.2438509 56.9734615,34.8996828 56.6172874,35.5555147 C56.6725506,35.5861181 56.7275101,35.6167216 56.7824696,35.647325 C57.1422874,34.9884328 58.0626316,34.6545491 57.6852024,33.588019 Z M38.6956275,15.9763466 C37.6562551,16.0571397 37.4090891,16.3637862 37.4118219,17.4771397 C37.9025101,16.903631 38.2990688,16.4399888 38.6956275,15.9763466 Z M29.1678947,17.7029931 C29.072247,17.6656569 28.9762955,17.6280147 28.8803441,17.5903724 C28.7297368,17.8771267 28.4725506,18.1605147 28.4652632,18.4509414 C28.4601012,18.6495578 28.8026113,18.8576612 28.9899595,19.0614802 C29.04917,19.0204716 29.1086842,18.9794629 29.1678947,18.9384543 L29.1678947,17.7029931 Z M19.6890486,25.8747259 C19.2912753,26.3539759 19.6374291,27.464881 20.4748785,28.4142 C20.1845951,27.4762043 19.9447166,26.7004069 19.6890486,25.8747259 Z M44.7074696,18.7517733 C44.7888462,18.8267517 44.8705263,18.9014241 44.9522065,18.9760966 C45.2011943,18.7526914 45.5737652,18.5672345 45.6581781,18.2924155 C45.7207287,18.0882905 45.4094939,17.7672603 45.2646559,17.4985621 C45.1769028,17.5202905 45.0891498,17.542019 45.0013968,17.5637474 C44.9033198,17.959756 44.8052429,18.3557647 44.7074696,18.7517733 Z M30.3111134,20.5993034 C29.5705263,21.0999759 29.5097976,22.0088983 30.1155668,23.0111612 C30.1841903,22.1631397 30.2440081,21.4252905 30.3111134,20.5993034 Z M40.0990688,14.409144 C38.7162753,13.7664716 38.5079757,13.8775621 38.244413,15.3563207 C38.892996,15.0251914 39.4243725,14.7537388 40.0990688,14.409144 Z M48.3177935,18.3315879 C49.0784211,18.1712259 49.5970445,18.0613595 50.115668,17.9521052 C50.1284211,17.8685578 50.1408704,17.7850103 50.1536235,17.701769 L48.894413,17.0180879 C48.7340891,17.3837991 48.5734615,17.7495103 48.3177935,18.3315879 Z M45.7070648,15.1754543 C45.619919,15.2063638 45.5330769,15.2369672 45.4456275,15.2678767 C45.3390486,15.7532474 45.1860121,16.2349457 45.1495749,16.725825 C45.1356073,16.9140362 45.3697166,17.1386655 45.5285223,17.311575 C45.5783198,17.3660491 45.8397571,17.3363638 45.8546356,17.2929069 C46.0158704,16.8213078 46.2232591,16.3442 46.2521053,15.8585233 C46.2648583,15.6424629 45.9001822,15.4040621 45.7070648,15.1754543 Z M45.0797368,23.8056267 C45.1602024,22.6338207 45.2512955,21.4623207 45.3062551,20.2892905 C45.3126316,20.1509629 45.1189069,20.0031483 45.0180972,19.8596181 C44.8562551,19.9801957 44.5653644,20.089144 44.5535223,20.222881 C44.447247,21.4451828 44.4627328,22.6613638 45.0797368,23.8056267 Z M30.9545344,16.4797733 C29.6021053,16.7910103 29.5693117,17.3443207 29.61,18.6559845 C29.6154656,18.8331784 29.8884413,19.1526784 30.011417,19.1404371 C30.2093927,19.1205448 30.5054453,18.909075 30.550081,18.7263724 C30.7274089,17.9977043 30.823664,17.2488379 30.9545344,16.4797733 Z M21.9885425,31.6988681 C22.0975506,31.6652043 22.2065587,31.6312345 22.3152632,31.5975707 C21.7620243,29.346075 21.2090891,27.0945793 20.6558502,24.8427776 C20.5438057,24.846144 20.4317611,24.8492043 20.319413,24.8525707 C20.2410729,25.1619716 20.0276113,25.5126871 20.1062551,25.7743466 C20.7013968,27.7589802 21.3539271,29.7261698 21.9885425,31.6988681 Z M47.1162753,15.9335017 C46.6908704,15.9166698 46.0650607,16.8041698 46.2511943,17.5215147 C46.3553441,17.9230319 46.9635425,18.2844586 47.4217409,18.4723638 C47.8574696,18.651394 48.3943117,17.7997 48.4368219,16.9553509 C48.4598988,16.4972172 47.7648583,15.9592086 47.1162753,15.9335017 Z M54.5519028,27.8875147 C54.6739676,27.8186569 54.7091903,27.811006 54.7137449,27.7947862 C54.9502834,26.9440103 55.1761943,26.0901741 55.4200202,25.2415405 C55.7197166,24.1967388 55.317085,23.0371741 54.3478543,22.3207474 C53.9889474,24.2053078 54.2877328,26.0240707 54.5519028,27.8875147 Z M41.1138462,14.4385233 C42.4104049,15.2642043 43.5408704,15.9843034 44.6910729,16.71695 C45.2707287,15.2158509 45.2370243,15.1301612 43.8964372,14.5863379 C43.0772065,14.2539845 42.2525101,13.9470319 41.1138462,14.4385233 Z M20.1940081,43.3254241 C20.2687045,43.2740103 20.3437045,43.2222905 20.4187045,43.1705707 C19.1828745,40.9554931 17.9473482,38.7404155 16.7118219,36.5253379 C16.6280162,36.5730793 16.5439069,36.6208207 16.4601012,36.6685621 C16.8900607,39.3482 18.5868219,41.3114112 20.1940081,43.3254241 Z M51.8087854,18.66945 C52.7169838,19.4957431 53.5076721,20.2152302 54.2907692,20.9276784 C54.4765992,20.0233466 54.6955263,18.9577345 54.9399595,17.7681784 C53.8097976,18.0937991 52.8760931,18.3624974 51.8087854,18.66945 Z M45.6092915,25.4334241 C46.2748785,23.4861267 46.8724494,21.7499931 47.4551417,20.0089629 C47.4934008,19.8948121 47.4672874,19.6906871 47.3889474,19.6181569 C47.1347976,19.3809802 45.7832794,19.7473034 45.7401619,20.0817991 C45.5188057,21.7919198 45.3180972,23.506325 45.6092915,25.4334241 Z M19.3274089,40.2736483 C19.3954251,40.2396784 19.4637449,40.2054026 19.5314575,40.1711267 C18.5121255,37.8911698 18.2758907,35.2981397 16.6917814,33.2213897 C16.4297368,34.18295 16.1871255,35.1197216 16.7115182,36.0225233 C17.322753,37.0746698 17.9631377,38.1093724 18.5974494,39.1474414 C18.8309514,39.5290664 19.083583,39.898756 19.3274089,40.2736483 Z M45.0612146,26.2915448 C45.1471457,26.2548207 45.2327733,26.2177905 45.3184008,26.1804543 C44.5829757,24.3234371 44.0640486,22.4269414 44.1387449,20.4110922 C44.142996,20.2969414 43.8718421,20.0622129 43.7440081,20.0726181 C43.1825709,20.1185233 42.6265992,20.2342043 41.8592915,20.3581483 C42.9921862,22.4575448 44.027004,24.3748509 45.0612146,26.2915448 Z M36.8452227,16.7044026 C36.7690081,16.6471741 36.6930972,16.5899457 36.6168826,16.5327172 C35.1363158,17.3801267 33.655749,18.2272302 32.1751822,19.0749457 C32.2091903,19.1594112 32.2428947,19.2438767 32.2769028,19.3283422 C33.1714372,19.4470836 34.0638462,19.6132603 34.9623279,19.6588595 C35.2814575,19.6753853 35.7930972,19.4847259 35.9106073,19.2395922 C36.2974494,18.4313552 36.5443117,17.5548724 36.8452227,16.7044026 Z M36.6681984,19.3867948 L40.992996,19.3867948 C40.6383401,17.9750578 40.3198178,16.7050147 39.9733603,15.3257172 C38.747247,16.5630147 37.5296356,17.781644 36.6681984,19.3867948 Z M25.8417814,24.5902991 C26.7305466,23.5194845 27.5036235,22.5885276 28.2754858,21.6569586 C28.3398583,21.5792259 28.3966397,21.4953724 28.4588866,21.4154974 C28.7658704,21.0197948 28.9022065,20.6032819 28.5244737,20.1834026 C27.9092915,19.4991095 26.1700202,19.4278034 25.542996,20.0735362 C25.3838866,20.2372647 25.2168826,20.5175922 25.242996,20.7189629 C25.4054453,21.9681957 25.6219433,23.2100836 25.8417814,24.5902991 Z M40.8144534,14.7494543 C40.3498785,15.8453638 40.7947166,18.4931741 41.4970445,19.2056224 C41.5310526,19.2402043 41.5711336,19.2986569 41.6060526,19.2971267 C42.4052429,19.2600966 43.2311538,19.3191612 43.9890486,19.1177905 C44.252915,19.0480147 44.4177935,18.3456655 44.4976518,17.9080362 C44.5547368,17.5946569 44.5104049,17.0698078 44.3121255,16.9336224 C43.1962348,16.166394 42.019919,15.4882216 40.8144534,14.7494543 Z M52.1191093,20.9833767 C52.7276113,22.6677905 52.6759919,24.5664284 53.8374291,26.115575 C53.8374291,25.2032862 53.6828745,24.3295578 53.8711336,23.5384586 C54.2084818,22.1224371 53.8271053,21.0620276 52.7512955,20.177894 C52.6547368,20.098325 52.5845951,19.9869284 52.4989676,19.8929759 C51.3572672,18.6333379 49.9671862,18.4910319 48.4592915,19.5116569 C49.6893522,20.6390879 50.9096964,21.757644 52.2812551,23.0148336 C52.2147571,22.1821138 52.1667814,21.5828983 52.1191093,20.9833767 Z M30.889251,19.2775405 C31.2773077,19.1431914 31.4701215,19.1073853 31.6313563,19.015881 C33.2519028,18.0962474 34.8639474,17.1622302 36.4851012,16.2435147 C37.2867206,15.7890534 37.577004,14.9535793 37.2302429,13.9947733 C37.1607085,13.9917129 37.0781174,13.9644759 37.0143522,13.9883466 C35.2936032,14.6328552 33.5719433,15.2761397 31.8587854,15.9408466 C31.6659717,16.015825 31.4096964,16.1957733 31.3744737,16.3671526 C31.1880364,17.2730147 31.0629352,18.1920362 30.889251,19.2775405 Z M19.9513968,18.1479672 C20.0355061,20.1197474 20.1836842,21.9241267 20.7408704,23.7021871 C21.9092915,22.6797259 23.001498,21.740506 24.0733603,20.7783336 C24.5525101,20.3480491 24.3098988,19.0752517 23.6904656,18.9210103 C22.5211336,18.6296655 21.3302429,18.4270707 19.9513968,18.1479672 Z M34.9365182,20.5858379 C33.4729555,20.5197345 32.2498785,20.4557733 31.0261943,20.4257819 C30.9235628,20.4233336 30.7586842,20.6323552 30.7189069,20.7709888 C30.2582794,22.3819543 30.6621255,26.5483078 31.5211336,28.3529931 C31.9240688,25.4043509 33.3584818,23.098075 34.9365182,20.5858379 Z M55.4910729,36.1348379 C56.1994737,34.7708422 56.9233603,33.4144974 57.6023077,32.0352 C57.7252834,31.7851698 57.7076721,31.4381267 57.6776113,31.1437216 C57.6238664,30.6139759 57.5540283,30.0787216 57.4161741,29.5664198 C57.0059514,28.0435922 56.5595951,26.5305578 56.1272065,25.0135448 C56.0291296,25.0199716 55.9310526,25.0267043 55.8326721,25.033131 C55.5961336,25.9285879 55.335,26.8185362 55.1315587,27.72195 C55.0046356,28.2853595 54.8382389,28.884881 54.9080769,29.4403336 C55.1862146,31.6523509 55.6586842,33.845394 55.4910729,36.1348379 Z M24.571336,21.0225491 C24.447753,21.0556009 24.3888462,21.0543767 24.3548381,21.083144 C23.5623279,21.7555017 22.776498,22.4358164 21.9812551,23.1051138 C20.9157692,24.0014888 20.8410729,24.4430966 21.2103036,25.7611871 C21.6609109,27.3706224 21.9967409,29.0124974 22.3854049,30.6393767 C22.4373279,30.8572733 22.5080769,31.0702733 22.5915789,31.3594759 C23.102004,30.1028983 23.4147571,28.893756 24.0405668,27.8810879 C25.4133401,25.6605017 25.2845951,23.4013552 24.571336,21.0225491 Z M48.0575709,53.6571483 C53.6546356,48.9169802 56.8012955,42.7246784 57.6879352,35.1442043 C56.5668826,36.4518897 55.6738664,37.6907172 55.0987652,39.1520319 C54.4504858,40.7994155 53.7757895,42.4367 53.1007895,44.0733724 C51.9645547,46.829519 50.6209312,49.474269 48.9666802,51.9568207 C48.5834818,52.5312474 48.3095951,53.1797345 48.0575709,53.6571483 Z M19.0058502,26.5883983 C18.6499798,27.1928164 18.3256883,27.5915793 18.1626316,28.0484888 C17.694413,29.3613767 17.2608097,30.6889543 16.886417,32.0315276 C16.8053441,32.3231784 16.9720445,32.7283681 17.1217409,33.0325664 C17.4205263,33.6397388 17.8905668,34.1774414 18.1052429,34.8075664 C18.7589879,36.7279328 19.2590891,38.7024672 19.9468421,40.6090621 C20.4426923,41.984075 20.944919,43.4334543 21.7987652,44.5820017 C23.0901619,46.3187474 24.6733603,47.8385147 26.1630364,49.421325 C27.9162753,51.2841569 29.6725506,53.1454586 31.4874291,54.9464716 C32.2407692,55.6941138 32.7918826,56.7545233 34.1376316,56.7416698 C34.9799393,56.7337129 35.0853036,56.7529931 34.8126316,55.917825 C34.14917,53.8860621 32.9376316,52.1884888 31.4218421,50.7467603 C29.9931984,49.3882733 28.4103036,48.1959629 26.9276113,46.8934802 C25.2247773,45.3966655 23.6330769,43.8040621 22.9854049,41.5137 C22.771336,40.7571828 22.5135425,40.0126009 22.3231579,39.250269 C22.1901619,38.718075 22.0902632,38.168131 22.0589879,37.6215534 C21.9964372,36.5314586 22.132166,35.4116784 21.9347976,34.351575 C21.4377328,31.6838724 20.2492713,29.257631 19.0058502,26.5883983 Z M13.9796356,61.7863422 C13.419413,61.5139716 13.0088866,61.3043379 12.589251,61.1158207 C12.4107085,61.0356397 12.1371255,60.8951698 12.0411741,60.9658638 C11.879332,61.0864414 11.764251,61.3456526 11.7375304,61.5598767 C11.6904656,61.9366052 11.7800405,62.3329198 11.7162753,62.7041397 C11.4930972,64.0035621 12.17417,64.6645966 13.2077733,65.2840103 C18.9089879,68.7005793 25.176498,70.1747474 31.6881377,70.5389284 C37.1947166,70.8464931 42.7137449,70.5407647 48.1762955,69.6664241 C52.0936032,69.0393595 55.9668826,68.2048034 59.6637449,66.6957474 C61.1157692,66.1029586 61.5405668,65.067644 60.8874291,63.4217905 C59.5286235,63.9206267 58.1667814,64.4206871 56.8274089,64.9121784 C57.2494737,64.5308595 57.7113158,64.1128164 58.1734615,63.6950793 C58.1367206,63.656519 58.1002834,63.6182647 58.0638462,63.5797043 C57.0223482,64.3839629 55.9811538,65.1879155 54.9396559,65.9918681 C54.8938057,65.9349457 54.8476518,65.8777172 54.8018016,65.8204888 C55.273664,65.4085664 55.7452227,64.996644 56.217085,64.5847216 C56.1815587,64.5333078 56.146336,64.481894 56.1108097,64.4301741 C55.8393522,64.5865578 55.5618219,64.7334543 55.2970445,64.9008552 C54.2652632,65.5520966 53.5796356,66.7284931 52.1649595,66.8193853 C51.5488664,66.8588638 50.9531174,67.224575 50.3482591,67.4424716 C50.3203239,67.402075 50.2926923,67.3619845 50.2650607,67.321894 C50.7596964,66.9335362 51.2546356,66.5454845 51.7495749,66.1574328 C51.7125304,66.1008164 51.6754858,66.0442 51.6384413,65.9875836 C50.7144534,66.5568078 49.7904656,67.1263379 48.8667814,67.6961741 C48.8342915,67.6472086 48.8021053,67.5982431 48.7696154,67.5492776 C49.255749,67.1768336 49.7418826,66.8043897 50.2277126,66.4316397 C50.1855061,66.3664543 50.1432996,66.301575 50.1007895,66.2360836 C48.9566599,66.9032388 47.812834,67.5700879 46.6146559,68.2687647 C46.5973482,68.0744328 46.5839879,67.9235578 46.5654656,67.7114759 C46.123664,67.9440621 45.7101012,68.1304371 45.329332,68.36945 C44.794919,68.7048638 44.8696154,68.3235448 44.8714372,67.9449802 C44.3534211,68.1784845 43.8581781,68.4015836 43.3632389,68.6249888 C43.3101012,68.5276698 43.2569636,68.4306569 43.2041296,68.333644 C43.6058502,68.1019759 44.0078745,67.8700017 44.5714372,67.5449931 C43.5044332,67.6606741 42.7844939,68.4168853 41.8869231,68.3718983 C41.8586842,68.2758034 41.830749,68.1800147 41.8025101,68.0839198 C42.4984615,67.7916569 43.194413,67.4990879 43.8903644,67.206825 L43.7834818,66.9399629 C42.6053441,67.4075836 41.4284211,67.8782647 40.2481579,68.3397647 C40.0310526,68.4245362 39.7990688,68.4704414 39.5740688,68.5344026 C39.5415789,68.423006 39.5090891,68.3119155 39.4765992,68.200519 C40.2855061,67.8846914 41.0941093,67.5691698 41.9027126,67.2533422 C41.8693117,67.1600017 41.8359109,67.0666612 41.8022065,66.9730147 C40.2757895,67.5055147 38.7490688,68.0380147 37.2223482,68.5708207 C37.1916802,68.4765621 37.1607085,68.3823034 37.1297368,68.2880448 L39.7826721,67.2701741 C39.7492713,67.1850966 39.7155668,67.100019 39.682166,67.0149414 C38.0239676,67.5915103 36.3657692,68.1683853 34.7072672,68.7449543 C34.6759919,68.6751784 34.6447166,68.6054026 34.6134413,68.5353207 C35.4232591,67.8240966 36.6681984,67.9657905 37.507166,67.3117948 C37.4813563,67.2270233 37.4555466,67.1419457 37.4300405,67.0571741 C36.0187045,67.4801138 34.6070648,67.9027474 33.0858097,68.3584328 C33.1926923,68.147575 33.2610121,68.0478078 33.2938057,67.9373293 C33.32417,67.8354198 33.3162753,67.7224931 33.3290283,67.5694759 C32.5207287,67.5835534 31.9744737,68.5497043 30.9108097,68.023325 C31.5566599,67.7105578 32.040668,67.4758293 32.5246761,67.2414069 C32.4967409,67.1664284 32.4688057,67.09145 32.4408704,67.0164716 C31.136417,67.4562431 29.8319636,67.8957086 28.5278138,68.3357862 C28.4998785,68.2485664 28.472247,68.1613466 28.4443117,68.0744328 C29.0947166,67.7901267 29.7448178,67.5061267 30.3952227,67.2218207 C30.3712348,67.1413336 30.347247,67.0608466 30.3235628,66.9803595 C28.798664,67.0140233 27.377915,67.6028336 25.9416802,68.1077905 C25.9155668,68.0315879 25.8891498,67.9553853 25.8630364,67.8794888 C26.3382389,67.6199716 26.8131377,67.3607603 27.2883401,67.1012431 C27.2515992,67.0189198 27.2151619,66.9369026 27.1787247,66.8545793 C26.3409717,67.1508207 25.5032186,67.4473681 24.6654656,67.7436095 C24.6238664,67.6407819 24.5825709,67.5379543 24.5409717,67.4351267 C25.0914777,67.1615319 25.6422874,66.887631 26.1927935,66.6140362 C26.1502834,66.5240621 26.1074696,66.434394 26.0649595,66.3444198 C25.5609109,66.4640793 25.0507895,66.5635405 24.5546356,66.709825 C24.0882389,66.8472345 23.636417,67.0345276 23.1782186,67.2000922 C23.1508907,67.1033853 23.1235628,67.0069845 23.0959312,66.9105836 C23.6482591,66.6789155 24.200587,66.4478595 24.7526113,66.2161914 C24.7283198,66.1430491 24.7040283,66.0699069 24.6800405,65.9964586 C23.5936032,65.8513983 22.6854049,66.5819026 21.6035223,66.6428034 C22.101498,66.3731871 22.5994737,66.1041828 23.1639474,65.7987603 C21.8661741,65.1983207 20.8082794,66.0120664 19.6592915,65.9943164 C20.147247,65.7852948 20.6355061,65.5765793 21.2819636,65.2999241 C19.9513968,64.8301612 18.9007895,65.3596009 17.8295344,65.6353379 C17.7952227,65.5404672 17.7615182,65.4455966 17.7272065,65.3507259 L19.5223482,64.668575 C18.2810526,64.1207733 17.147247,64.8078207 15.9788259,64.9394155 C15.9554453,64.8390362 15.9320648,64.7383509 15.9089879,64.6376655 C16.6784211,64.4188509 17.4481579,64.2003422 18.298664,63.958575 C16.8943117,62.7546353 15.5297368,63.9959112 14.1651619,63.666006 C14.8960324,63.4539241 15.6269028,63.2418422 16.4497773,63.0034414 C15.4067611,62.0611612 14.4615182,62.9752862 13.4950202,62.7751397 C13.9911741,62.5783595 14.4870243,62.3815793 14.9768016,62.1875534 C14.7451215,61.6529112 13.922247,62.4929759 13.9796356,61.7863422 Z M45.9454251,39.0305362 L46.2129352,38.9910578 C46.075081,37.7690621 45.9369231,36.5467603 45.7990688,35.3244586 C45.8947166,35.3149716 45.990668,35.3054845 46.0863158,35.2956914 C46.3811538,37.4599672 46.6756883,39.6242431 46.9705263,41.7882129 C47.0567611,41.7934155 47.142996,41.7983121 47.2289271,41.8035147 C47.3494737,40.8670491 47.4791296,39.9315017 47.5887449,38.993506 C48.094919,34.6514888 47.1578745,30.6182603 45.0275101,26.8375103 C44.1180972,25.2231784 43.2253846,23.5990534 42.3363158,21.9727862 C41.398664,20.257769 41.4065587,20.2703164 39.497247,20.5359543 C39.0026113,20.6048121 38.8031174,20.8245448 38.7372267,21.3034888 C38.3318623,24.2469284 38.2611134,27.2007733 38.548664,30.1524759 C38.8225506,32.9652388 39.2136437,35.7663724 39.5163765,38.576381 C39.739251,40.64395 40.7367206,42.3311181 42.0323684,43.9087259 L41.2775101,40.3223078 C41.3069636,40.3177172 41.3361134,40.3134328 41.3652632,40.3088422 L44.3133401,49.3405319 L44.5714372,49.3405319 C44.6883401,49.1367129 44.8301417,48.9432991 44.9172874,48.7272388 C45.2024089,48.0209112 45.5048381,47.318256 45.7337854,46.5926483 C47.0367206,42.4584284 47.2283198,43.6648164 45.2403644,39.907019 C43.6826721,36.9629672 43.1901619,33.8707948 43.2861134,30.6152 C43.2903644,30.473506 43.3820648,30.3345664 43.4649595,30.1059586 C43.6234615,31.9642 43.722753,33.7043121 43.9340891,35.4306526 C44.1235628,36.9779629 45.2813563,39.4825491 46.0863158,40.2614069 C45.9627328,39.9382345 45.8716397,39.7080966 45.7863158,39.4755103 C44.954332,37.20045 44.2195142,34.901519 44.1839879,32.443144 C44.1797368,32.1371095 44.252004,31.8295448 44.2887449,31.5225922 C44.5595951,32.8177302 44.6415789,34.0911397 44.8975506,35.327519 C45.157166,36.5807302 45.589251,37.7975233 45.9454251,39.0305362 Z M43.2402632,54.8314026 C43.7115182,54.8314026 44.1065587,54.7536698 44.4581781,54.8448681 C45.8212348,55.19895 46.4345951,54.5366914 47.1414777,53.4031397 C48.4832794,51.2507991 49.7758907,49.0791784 51.0032186,46.8588983 C52.5824696,44.0017603 53.8495749,41.0381224 54.6235628,37.8544457 C55.069919,36.020075 55.3186032,34.1318422 54.9132389,32.3302172 C54.4984615,30.4881957 53.6209312,28.7557345 52.2909717,27.3271655 C51.6511943,26.6398121 51.0299393,25.9331784 50.4357085,25.2057345 C50.0837854,24.775144 49.7828745,24.2897733 50.2122267,23.6529155 C50.4651619,25.494019 52.0158704,26.2878724 53.0106073,27.6521741 C53.093502,24.6285534 50.5176923,20.7119241 47.8271053,19.7644414 C47.2635425,21.633394 46.6553441,23.4858207 46.1552429,25.3676267 C45.8418826,26.5470836 45.9202227,27.7862172 46.4525101,28.8830448 C47.8055466,31.671325 48.068502,34.6334328 48.0098988,37.66195 C47.993502,38.5072172 47.9303441,39.3515664 47.879332,40.3789241 C48.0754858,40.1389931 48.165668,40.0575879 48.2209312,39.9569026 C49.22417,38.1222259 49.9644534,36.1923724 50.4618219,34.1508164 C50.8025101,32.7525448 51.3017004,31.3922216 51.7580769,30.0245534 C51.836417,29.7907431 52.0577733,29.6052862 52.2217409,29.3858595 C51.0964372,32.9526914 49.9951215,36.4442388 48.9323684,39.8130664 C50.1915789,37.8278207 51.4538259,35.6513034 53.4105061,33.8138724 C53.4105061,34.0712474 53.4287247,34.1290879 53.4080769,34.1584672 C52.0626316,36.0317043 50.6649595,37.8694414 49.3832794,39.7858293 C48.5276113,41.0653595 47.6695142,42.3895707 47.1056478,43.8117129 C45.7993725,47.1064802 44.667996,50.4716353 43.4752834,53.8116957 C43.3684008,54.1116095 43.3295344,54.4357 43.2402632,54.8314026 Z M38.2647571,56.5540707 C37.7257895,54.9727905 37.317085,53.4205836 36.6773077,51.9718164 C35.4369231,49.1633379 34.0064575,46.439631 32.7645547,43.6314586 C31.1358097,39.9489457 30.2928947,36.1063767 30.8163765,32.0391784 C30.9259919,31.1877905 31.1355061,30.2898853 30.9815587,29.4746095 C30.5002834,26.9308509 29.8690081,24.4158595 29.2860121,21.8922991 C29.2620243,21.7888595 29.1387449,21.7083724 29.062834,21.6187043 C25.4087854,24.5927474 21.8667814,31.9525707 22.8010931,36.1856397 C23.5608097,34.0733897 24.2479555,32.1625103 24.9235628,30.2840707 C25.2369231,31.6404155 24.262834,32.7660103 23.9783198,34.2551741 C25.4971457,32.6194198 26.4578745,30.9291914 26.9956275,28.9724069 C27.0454251,29.3114931 27.0815587,29.6594543 26.9506883,29.923256 C26.2999798,31.236144 25.6340891,32.5432172 24.9162753,33.8196871 C24.4325709,34.6793379 23.8025101,35.4563595 23.3306478,36.322131 C22.7837854,37.3253121 22.5833806,38.4141828 22.8338866,39.5694629 C23.4308502,42.3246914 24.9010931,44.5015147 27.0651619,46.2523379 C29.0907692,47.8914586 31.2785223,49.3478767 32.9121255,51.4383983 C32.9910729,51.5396957 33.1407692,51.5849888 33.2868219,51.6743509 C33.3244737,51.5403078 33.3724494,51.4644112 33.3575709,51.4041224 C33.3092915,51.2073422 33.2798381,50.9869974 33.1693117,50.8278595 C32.3919838,49.7096095 31.71,48.4946526 30.7826721,47.5177905 C28.7576721,45.3832 27.1164777,42.9792991 25.5417814,40.5151095 C25.4552429,40.3801483 25.427915,40.2069328 25.3729555,40.0517733 C25.432166,40.023006 25.4913765,39.9942388 25.550587,39.9654716 C26.9324696,41.9329672 28.144919,44.034506 29.8431984,45.7455448 C29.297247,44.6422905 28.6431984,43.6100362 28.1303441,42.5107603 C27.6168826,41.4105664 27.2443117,40.2436569 26.8094939,39.1061267 C26.9051417,39.0626698 27.0007895,39.0189069 27.0964372,38.97545 C28.1655668,42.5756397 30.1346964,45.640881 32.4524089,48.4989371 C32.5258907,48.4674155 32.5993725,48.435894 32.6728543,48.4046784 C31.7008907,45.9919026 30.7289271,43.5791267 29.7566599,41.1666569 C29.8359109,41.1360534 29.9151619,41.105144 29.994413,41.0745405 C30.4753846,42.1777948 30.9879352,43.2685017 31.4303441,44.3870578 C32.4007895,46.8402302 33.4914777,49.261881 34.2265992,51.7869716 C34.6629352,53.2856224 35.12083,54.728269 35.8498785,56.1017517 C36.1805466,56.7242259 36.6202227,56.93845 37.2663765,56.8148121 C37.5363158,56.7633983 37.7992713,56.6770966 38.2647571,56.5540707 Z M40.2985628,52.2769328 C40.3386437,51.5164371 40.3693117,50.7556353 40.4197166,49.9960578 C40.6948178,45.8520448 39.5594939,41.8607431 39.1231579,37.7941569 C38.7946154,34.7322819 38.3352024,31.6771397 38.1803441,28.6066957 C38.0591903,26.2012647 38.323664,23.7768595 38.3895547,21.3597991 C38.3956275,21.1434328 38.2125304,20.7382431 38.0980567,20.7312043 C37.2669838,20.6788724 36.4304453,20.6923379 35.597247,20.7226353 C35.4566599,20.7278379 35.2796356,20.8863638 35.1915789,21.021631 C33.8916802,23.0246267 32.5608097,25.02395 32.0938057,27.4254026 C31.873664,28.5577302 31.9550405,29.7665664 31.6249798,30.8563552 C31.0720445,32.6824629 31.004332,34.5119371 31.1710324,36.3689543 C31.2858097,37.6463422 31.4564575,38.9280147 32.1630364,40.1628638 C32.477915,38.4457043 32.7299393,36.8371871 33.0760931,35.2491741 C33.4231579,33.6565707 33.8248785,32.071006 34.6088866,30.6170362 C34.5548381,31.2177819 34.3844939,31.7833336 34.2187045,32.3501095 C34.0547368,32.9107647 33.8859109,33.4698897 33.7371255,34.0345233 C33.5819636,34.6239457 33.4201215,35.2139802 33.3132389,35.8131957 C33.2130364,36.375075 33.1808502,36.9491957 33.1186032,37.5178078 C33.1932996,37.5321914 33.267996,37.546269 33.3426923,37.5603466 C34.0359109,35.6620147 34.7291296,33.7636828 35.4226518,31.8650448 C35.4800405,31.884631 35.5374291,31.9042172 35.5948178,31.9234974 C35.4235628,32.6267647 35.2526113,33.3300319 35.0409717,34.1985578 C35.565668,33.694519 35.9604049,33.3153422 36.3551417,32.9361655 C35.790668,34.0593121 35.0768016,35.0502517 34.5308502,36.1274931 C33.9873279,37.200144 33.6120243,38.3597086 33.1629352,39.481019 C33.2415789,39.5143767 33.319919,39.5480405 33.3982591,39.5813983 C34.1257895,38.4328509 34.8533198,37.2839974 35.5808502,36.13545 C35.6385425,36.171256 35.6962348,36.2073681 35.7542308,36.2434802 C35.6427935,36.4607647 35.5365182,36.6811095 35.4187045,36.8950276 C34.7324696,38.1399759 34.0611134,39.3934931 33.3493725,40.6237517 C32.7946154,41.5834759 32.7369231,42.481075 33.4778138,43.3713293 C33.6180972,43.5399543 33.6794332,43.776519 33.7702227,43.9846224 C34.6122267,45.9135578 35.4466397,47.8461655 36.2956275,49.7720405 C37.1640486,51.7410664 38.0564575,53.699381 38.9136437,55.6736095 C39.0733603,56.0414629 39.258583,56.1299069 39.6074696,55.9876009 C40.1218421,55.7779672 40.6431984,55.5851655 41.1581781,55.3773681 C41.94583,55.0590922 43.794413,51.9507 43.5812551,51.1286914 C43.3547368,50.255881 42.99917,49.4090836 42.6232591,48.586769 C42.4028138,48.1038466 42.0326721,47.6907 41.7296356,47.2463379 C41.7782186,47.2077776 41.826498,47.1692172 41.875081,47.1306569 C42.3226518,47.6536698 42.7702227,48.1763767 43.2615182,48.7508034 C43.3887449,46.9531569 40.900081,42.7234543 40.0073684,41.8916526 C40.8636437,45.4177819 40.8797368,48.8407776 40.2985628,52.2769328 Z M50.667085,61.8490793 C50.6716397,61.9112043 50.6761943,61.9730233 50.680749,62.0351483 C52.3489676,62.1030879 53.9558502,61.7894026 55.4862146,61.1470362 C55.9261943,60.9624974 56.455749,60.6417733 56.6315587,60.2436224 C57.0132389,59.379381 57.5883401,58.8612647 58.4361134,58.5255448 C58.8733603,58.3523293 59.2419838,58.0080405 59.6519028,57.7580103 C60.2752834,57.3779155 60.5810526,56.8111397 60.5358097,56.0983853 C60.4817611,55.2460793 60.3117206,54.4002 60.2752834,53.5482 C60.2379352,52.669881 59.6716397,52.447394 58.9875304,52.3840448 C58.3869231,52.3283466 57.775081,52.3292647 57.1726518,52.3714974 C55.6602024,52.4770793 54.4031174,53.2721569 53.12083,53.9775664 C50.7645547,55.2736224 48.2819636,55.9465922 45.5701215,55.7654198 C44.3707287,55.6855448 43.1512955,55.6922776 42.0226518,56.3006741 C38.5055466,58.1959457 34.9122267,58.5680836 31.3377328,56.5396871 C29.6843927,55.6013853 28.0687045,55.1527388 26.2192105,55.7853121 C25.1294332,56.1580621 24.3153644,55.6757517 23.6789271,54.7772345 C23.3895547,54.3683724 23.1235628,53.8487259 22.7151619,53.6363379 C21.4684008,52.9878509 20.1924899,52.3558897 18.8622267,51.9222388 C17.5295344,51.4879759 16.4947166,52.2242948 16.1106073,53.592575 C15.7966397,54.710519 16.3101012,55.6374974 16.767085,56.5657 C17.7460324,58.553394 19.594919,59.3028724 21.5476518,59.8684241 C22.9756883,60.2815707 24.4462348,60.5667948 25.8411741,61.0686914 C28.1415789,61.8962086 30.3648583,62.9459069 32.6783198,63.7299672 C35.3646559,64.6404198 38.0743725,64.60645 40.7497773,63.4924845 C41.9096964,63.0095621 43.1166802,62.5251095 44.3455263,62.3509759 C46.4348988,62.0547345 48.5582794,62.0033207 50.667085,61.8490793 Z M49.069919,13.8604241 L49.2153644,13.8864371 C49.2153644,14.1906353 49.3025101,14.5288034 49.2004858,14.7929112 C48.7116194,16.0632603 49.1327733,16.9146483 50.3145547,17.4483724 C50.6169838,17.5848638 50.9610121,17.8012302 51.2515992,17.755631 C51.9190081,17.6506612 52.5760931,17.4388853 53.2182996,17.2151741 C55.0015992,16.5939241 55.2068623,16.2878897 55.0954251,14.4106741 C55.0371255,13.4304457 54.925081,12.4532776 54.8373279,11.4748853 C55.4862146,12.9518078 55.3489676,14.5312517 55.5056478,16.2484112 C57.1847976,15.5821741 58.8050405,14.9633724 60.4058502,14.2968293 C61.8760931,13.6844543 63.002915,12.6072129 63.8840891,11.3151353 C64.3553441,10.6238034 64.8269028,9.71732931 64.3362146,8.90205345 C63.5054453,7.52214397 62.3853036,6.39195862 60.8673887,5.71409224 C58.6447166,4.72192845 56.3209312,4.08078621 53.9822672,3.43076897 C49.0237652,2.05330776 44.0418826,0.89557931 38.8641498,0.969027586 C36.5139474,1.00238534 34.1664777,1.22426034 31.8162753,1.26526897 C28.8691093,1.31729483 25.9407692,1.56181638 23.1341903,2.4627819 C20.7867206,3.21623879 18.5288259,4.2484931 16.2171862,5.11977328 C14.7678947,5.66604483 13.5035223,6.4672431 12.4626316,7.62068707 C11.892085,8.25295431 11.3783198,8.94581638 10.7549393,9.51871293 C10.175587,10.0506009 9.94421053,10.655019 10.4054453,11.2453595 C10.9975506,12.0037129 11.5644534,12.8596914 12.3363158,13.3823983 C14.3698178,14.7598595 16.5344939,15.9230966 18.9767004,16.4265233 C19.1619231,16.4644716 19.3617206,16.4314198 19.6268016,16.4314198 C19.8041296,14.8235147 19.9784211,13.2431526 20.1527126,11.6630966 C20.2340891,11.667381 20.3151619,11.6713595 20.3965385,11.675644 C20.3965385,11.9021095 20.4132389,12.1297991 20.3938057,12.3544284 C20.2863158,13.5978466 20.1478543,14.8394284 20.0771053,16.0846828 C20.0637449,16.3142086 20.2629352,16.7135836 20.4454251,16.770506 C21.417996,17.0750103 22.4160729,17.2953552 23.6394534,17.6038379 C22.8269028,15.3229629 22.0623279,13.1773552 21.297753,11.0314414 C22.7409717,13.0056698 23.1630364,15.4062043 24.108583,17.5961871 C24.161417,17.2828078 24.1395547,16.9899328 24.1097976,16.6976698 C23.967996,15.3046009 23.7967409,13.9136741 23.6968421,12.5178509 C23.6667814,12.0967474 23.8331781,11.6612603 23.9093927,11.2322 C24.0454251,11.9795362 23.9995749,12.6815793 24.055749,13.3753595 C24.1480567,14.5171741 24.2974494,15.6550103 24.4386437,16.7925405 C24.5889474,18.004131 25.5077733,18.7126009 26.7165789,18.5690707 C27.3153644,18.4977647 27.8118219,17.9824026 27.747753,17.5037647 C27.4881377,15.5613638 27.2033198,13.6217172 26.9804453,11.6750319 C26.7946154,10.051825 27.073664,8.46534224 27.369413,7.15704483 C27.369413,8.67497586 27.2716397,10.4502819 27.3967409,12.2096741 C27.5218421,13.9721267 27.8686032,15.7186655 28.1230567,17.5049888 C28.9459312,17.3100448 29.367085,16.9021009 29.4508907,16.1339543 C29.6549393,14.2622474 29.8702227,12.3914586 30.1097976,10.5237302 C30.1857085,9.93002328 30.3521053,9.34794569 30.4772065,8.76097155 C30.558583,8.77994569 30.6402632,8.79922586 30.7216397,8.8182 C30.4037247,11.3616526 30.0855061,13.9054112 29.7560526,16.5409802 C30.6672874,16.2505534 31.114251,15.7608983 31.3061538,14.9621483 C31.798664,12.9117172 32.3300405,10.8710793 32.8556478,8.82921724 C32.8984615,8.66181638 33.0141498,8.51369569 33.09583,8.3567 C33.1659717,8.38271293 33.2361134,8.40872586 33.3062551,8.43473879 C32.7004858,10.7633552 32.0947166,13.0916655 31.4427935,15.5974759 C33.532166,14.8645233 35.3655668,14.2328681 37.185,13.5635707 C37.3605061,13.4989974 37.5469433,13.2061224 37.5633401,13.0056698 C37.6425911,12.0413552 37.6714372,11.07245 37.7036235,10.104769 C37.7145547,9.77455776 37.6899595,9.44220431 37.6690081,9.11138103 C37.6498785,8.81360948 37.6137449,8.51706207 37.5852024,8.21990259 C37.6951215,8.21653621 37.8047368,8.21347586 37.9143522,8.21072155 C37.9775101,9.64204483 38.040668,11.0736741 38.1041296,12.5049974 C38.1560526,12.5138724 38.2076721,12.5227474 38.2595951,12.5316224 C38.5249798,9.76751897 38.7903644,7.00341552 39.055749,4.2396181 C39.2178947,4.38008793 39.3253846,4.52484224 39.3144534,4.65980345 C39.0873279,7.46858793 38.8465385,10.2761483 38.6036235,13.1464457 C39.7650607,10.246769 40.2296356,7.17969138 41.0570648,4.21360517 C41.1630364,4.41099741 41.1973482,4.59216983 41.1578745,4.75589828 C40.5563563,7.24977328 39.9940081,9.75527759 39.3177935,12.2289543 C38.901498,13.7520879 38.8790283,13.850631 40.4725506,13.8050319 C41.8562551,13.7655534 43.2044332,13.8647086 44.4745749,14.4440319 C45.0885425,14.7237474 45.2646559,14.4467862 45.4012955,13.9075534 C45.6381377,12.9735362 45.915668,12.0496181 46.1989676,11.1284543 C46.2703239,10.8967862 46.4276113,10.6923552 46.5454251,10.4753767 C46.6413765,10.7407086 46.5797368,10.9255534 46.5281174,11.1131526 C46.2311538,12.1894759 45.9102024,13.2605966 45.6657692,14.3491612 C45.6214372,14.5465534 45.8950202,14.8167819 46.0216397,15.0533466 C46.2466397,14.9174672 46.5830769,14.8345319 46.6756883,14.6359155 C47.0075709,13.9249974 47.225587,13.1602172 47.5495749,12.4447086 C47.7436032,12.0159543 48.0551417,11.6413681 48.3141498,11.2422991 C48.0839879,12.1876397 47.6761943,13.02495 47.3622267,13.8962302 C46.7421862,15.6176741 46.5633401,15.3189845 48.3545344,16.0650966 C48.4140486,16.0898853 48.4923887,16.0681569 48.647247,16.0681569 C48.7884413,15.3303078 48.929332,14.595519 49.069919,13.8604241 Z M16.8165789,39.6205707 C16.4971457,38.3134974 16.2417814,37.2564543 15.9791296,36.2012474 C15.9001822,35.8829716 15.8704251,35.5246052 15.7009919,35.2604974 C14.6761943,33.6633034 13.4655668,32.2387129 11.8037247,31.2685836 C11.5851012,31.1409672 11.3576721,31.0289586 11.1338866,30.9099112 C11.1630364,30.8355448 11.1918826,30.7614845 11.2210324,30.6871181 C11.4436032,30.7541397 11.7165789,30.7599543 11.8802429,30.8976698 C12.8443117,31.7095793 13.7995749,32.5337302 14.7226518,33.3921569 C15.1328745,33.7737819 15.4605061,34.245381 15.9184008,34.7858379 C15.9833806,34.4164543 16.0140486,34.2444629 16.043502,34.0721655 C16.5001822,31.4295578 17.1123279,28.8457086 18.5610121,26.5308638 C18.7547368,26.2214629 18.7261943,25.7005922 18.6539271,25.3048897 C18.4164777,24.0057733 18.0882389,22.7237948 17.8428947,21.4255966 C17.7162753,20.7569112 17.6913765,20.0683336 17.6206275,19.388631 C17.7111134,19.3757776 17.8015992,19.3626181 17.892085,19.3494586 C18.3035223,21.3995836 18.2613158,23.5632474 19.2773077,25.4781052 C19.4042308,25.1515664 19.4267004,24.837881 19.3662753,24.5416397 C19.1834818,23.6455707 18.9290283,22.7623552 18.7811538,21.8613897 C18.6967409,21.3475578 18.7659717,20.808325 18.7659717,20.2804155 C18.8136437,20.2801095 18.8613158,20.2794974 18.9089879,20.2791914 C19.1689069,21.7307129 19.4288259,23.1822345 19.6887449,24.633756 C19.8095951,24.6411009 19.930749,24.6484457 20.0515992,24.6557905 C20.1314575,24.2842647 20.3151619,23.9008034 20.2738664,23.5436612 C20.0983603,22.0281784 19.7959312,20.5261612 19.6638462,19.0082302 C19.5985628,18.2590578 19.2982591,17.8382603 18.6618219,17.5582388 C16.3064575,16.521394 13.948664,15.4894457 11.6072672,14.4216914 C11.2595951,14.2631655 10.9322672,13.9687603 10.701498,13.6575233 C9.98489879,12.6922905 9.31961538,11.6884974 8.53712551,10.5589241 C8.12295547,11.0583724 7.54421053,11.5446612 7.23297571,12.1668293 C5.55412955,15.5224974 3.82639676,18.8613336 2.34370445,22.3057517 C1.21506073,24.9281612 0.852510121,27.7960103 0.554635628,30.6320319 C0.182064777,34.1762172 0.202712551,37.768756 1.11941296,41.1902216 C2.25261134,45.4211483 4.27852227,49.3184974 6.53064777,53.0793552 C7.87366397,55.3222819 9.7787247,57.0348509 11.7177935,58.6834586 C12.8831781,59.6743983 14.3394534,60.3088078 15.6086842,61.1855966 C19.8934008,64.1458681 24.6882389,65.574131 29.8040283,65.982381 C35.1530162,66.4096052 40.5065587,66.6073034 45.8519028,65.8517043 C48.7523077,65.4416181 51.6809514,65.1508853 54.4538259,64.1437259 C58.3176923,62.7402517 61.8709312,60.8241698 64.7109109,57.7173078 C68.1527126,53.9524716 70.7054453,49.6866569 72.3256883,44.8283595 C73.3356073,41.7992302 74.1077733,38.7483724 74.2993725,35.5365405 C74.6048381,30.4162776 73.4081781,25.5766483 71.7678947,20.8178121 C70.4327733,16.9440276 68.1691093,13.5433724 66.1280162,10.0346871 C65.9485628,9.72620431 65.6780162,9.47127759 65.4496761,9.19156207 C65.283583,9.6356181 65.4117206,10.0720233 65.2617206,10.362144 C64.5320648,11.7751052 63.955749,13.3646483 62.4757895,14.1725793 C60.5060526,15.2482905 58.4889474,16.2471871 56.4393522,17.1591698 C55.6668826,17.5028466 55.1412753,17.8205103 55.0996761,18.740144 C55.0772065,19.2389802 54.9442105,19.7570966 54.7498785,20.2189026 C54.1438057,21.6587948 55.1090891,22.5306871 55.8165789,23.5840578 C55.9854049,23.2890405 56.1086842,23.0735922 56.2319636,22.858144 C56.2951215,22.8691612 56.3582794,22.8801784 56.4211336,22.8911957 C55.8812551,23.9565017 56.3846964,24.8746052 56.6874291,25.8355534 C57.0994737,27.1417086 57.4553441,28.4659198 57.8151619,29.7879888 C57.9174899,30.1634931 57.9502834,30.5579716 58.0149595,30.943575 C58.1039271,30.9622431 58.1928947,30.9809112 58.2818623,30.9995793 C59.204332,28.7982733 60.1271053,26.5969672 61.0492713,24.3953552 C60.629332,26.9831828 59.2182996,29.2086655 58.4036235,31.6633681 C59.8009919,29.8231828 61.0690081,27.8890448 62.7818623,26.3591784 C61.3808502,28.3245319 59.9455263,30.2522431 58.568502,32.2206569 C58.3173887,32.5796353 58.3022065,33.1060147 58.1783198,33.5552733 C58.2855061,33.6036267 58.392996,33.6519802 58.5001822,33.7003336 C61.0966397,30.455144 63.6930972,27.2102603 66.3068623,23.9439543 C65.6637449,24.944381 65.0989676,25.9953034 64.3735628,26.9176914 C62.552004,29.2334543 60.6445142,31.4803595 58.8056478,33.7829629 C58.5041296,34.1606095 58.3049393,34.6600578 58.1804453,35.1359414 C57.505749,37.714894 57.0432996,40.3654586 56.177004,42.8752474 C55.0225506,46.2180621 53.173664,49.1917991 50.6139474,51.6862862 C49.5609109,52.7124198 48.4823684,53.7587517 47.9464372,55.4465319 C48.5081781,55.3519672 48.9417814,55.3617603 49.3034211,55.2041526 C50.9664777,54.4779328 52.6207287,53.7290664 54.2561538,52.9419457 C55.9863158,52.1095319 57.7438057,51.542756 59.6519028,52.2212345 C60.0004858,52.3451784 60.4626316,52.6322388 60.5497773,52.9376612 C61.3298381,55.6708552 61.3884413,57.6166224 58.480749,58.9016612 C58.2730567,58.9937776 58.0416802,59.0644716 57.8746761,59.2076957 C57.6317611,59.4164112 57.3363158,59.6474672 57.2403644,59.9299371 C56.9251822,60.8590578 56.217996,61.2633293 55.3759919,61.5604888 C53.5623279,62.2007129 51.6994737,62.3815793 49.7843927,62.361075 C48.073664,62.3424069 46.3225506,62.2888509 44.6594939,62.6150836 C42.7674899,62.9866095 40.9629352,63.7957647 39.1003846,64.3454026 C38.3874291,64.5559543 37.6182996,64.6725534 36.8761943,64.6661267 C33.5792308,64.6364414 30.5488664,63.5166612 27.54583,62.2772216 C26.0109109,61.6434241 24.4441093,61.083381 22.8730567,60.5462905 C22.1607085,60.3026871 21.3858097,60.249131 20.6686032,60.0171569 C18.2804453,59.24595 16.5548381,57.7029241 15.8188057,55.2659716 C15.2804453,53.4854629 16.0037247,50.9361957 18.8761943,51.5045017 C20.9163765,51.9081612 22.8606073,52.7280276 24.1058502,54.5767819 C24.54583,55.2304716 25.0684008,55.5227345 25.8141498,55.4376569 C26.2641498,55.3865491 26.7256883,55.34095 27.1532186,55.2017043 C28.4103036,54.7931483 29.5368219,55.1475362 30.6411741,55.7192086 C30.8731579,55.8394802 31.1112146,55.9484284 31.4643522,56.1195017 C30.6982591,54.5669888 27.8901619,51.1378724 26.0112146,49.8207 C23.3667814,47.9667431 21.1523077,45.5059198 18.1453239,44.1627345 C17.737834,43.980644 17.3889474,43.6562474 17.0318623,43.3737776 C16.9025101,43.2715621 16.8287247,43.0989586 16.6140486,42.7947603 C17.8735628,43.4830319 18.9329757,44.0620491 19.9926923,44.6410664 C20.0430972,44.5660879 20.0938057,44.4911095 20.1442105,44.416131 C18.2412753,41.1629845 15.6721457,38.5503681 12.4981579,36.4984069 C14.2015992,37.0804845 15.4395547,38.3254328 16.8165789,39.6205707 Z M61.1133401,61.7251353 C61.3404656,61.7425793 61.5678947,61.7600233 61.9401619,61.7887905 C61.0611134,62.7919716 61.5703239,63.8808422 61.5217409,64.9137086 C61.4661741,66.09745 61.2970445,66.3936914 60.1890486,66.8487647 C56.4754858,68.3743466 52.586417,69.2639888 48.6603036,69.9596052 C42.9326721,70.9747216 37.1309514,71.191394 31.3474494,70.8489414 C24.7544332,70.4587474 18.4438057,68.8444155 12.6691093,65.4364155 C11.7047368,64.8674974 11.2125304,64.1737172 11.2808502,63.0475103 C11.3473482,61.9555793 11.4013968,60.8599759 11.3780162,59.7677388 C11.3695142,59.3821353 11.2292308,58.8456569 10.9559514,58.6436741 C8.38348178,56.7447302 6.56313765,54.2129069 5.06283401,51.4546181 C3.30382591,48.2204457 1.61313765,44.9116009 0.758684211,41.3107991 C-0.0128744939,38.0594888 -0.135850202,34.7010664 0.122246964,31.3548853 C0.639352227,24.6441612 2.8544332,18.4699155 6.36425101,12.8159284 C8.67740891,9.09026466 11.7375304,6.05103621 15.8157692,4.14995 C20.8911741,1.78399741 26.2076721,0.56169569 31.7698178,0.371342241 C34.7995749,0.267596552 37.8323684,0.234238793 40.8639474,0.205471552 C44.3021053,0.173031897 47.640668,0.857325 50.9470445,1.727075 C53.9698178,2.52215259 57.0147571,3.21532069 59.9540283,4.33663103 C62.1545344,5.17608362 63.9013968,6.57251897 65.2580769,8.39097586 C70.1661741,14.9673509 73.5247773,22.2518897 74.5186032,30.4878897 C75.1398583,35.6363078 74.2532186,40.6075319 72.4820648,45.4747043 C70.5032186,50.9129371 67.5487652,55.6549414 63.2880364,59.5522905 C62.5492713,60.2280147 61.7710324,60.8602819 61.0110121,61.5127474 C61.0450202,61.5834414 61.0790283,61.6541353 61.1133401,61.7251353 Z" id="Fill-1" fill="#FEFEFE" mask="url(#mask-2)"></path>
                </g>
                <path d="M10.6085769,17.860853 C10.6510664,17.8108491 10.6938615,17.7605385 10.736351,17.7105346 C10.4034657,17.3374998 10.1149039,16.9015767 9.71843718,16.6187328 C9.52708161,16.4822192 8.97808063,16.5147371 8.85550302,16.6748721 C8.30986452,17.3875036 7.71348317,18.117928 7.4007727,18.9434516 C6.03316114,22.554159 5.57311299,26.352304 5.41049132,30.1792857 C5.3349884,31.9564163 5.47560112,33.7455111 5.57005619,35.526323 C5.67521005,37.5200347 5.97997284,39.4842963 6.81906398,41.317873 C7.0006378,41.7151428 7.27391557,42.1341935 7.6205565,42.3774638 C8.24169792,42.8133869 8.7420958,42.5713437 8.77174675,41.8191386 C8.80659425,40.9347147 8.81729304,40.0214542 8.64122146,39.1615721 C7.86662877,35.374164 7.45334963,31.5462621 7.59151692,27.6938183 C7.64898472,26.0958426 8.10475335,24.4803808 8.58772749,22.9388511 C9.05541763,21.4467118 9.7954685,20.0416956 10.4049941,18.5937314 C10.502506,18.3621185 10.5422443,18.1056571 10.6085769,17.860853 M9.21865066,40.9460652 C9.21865066,41.2522238 9.29782174,41.5878324 9.20000419,41.8584054 C9.05450059,42.2596633 8.85978254,42.8173749 8.54584935,42.937016 C8.17567107,43.0784379 7.51509696,42.9732151 7.23203743,42.7063234 C6.77535177,42.2753087 6.4201518,41.662378 6.2049532,41.0604912 C5.44319906,38.9287321 5.25306621,36.6856146 5.10358877,34.4452582 C4.79576918,29.8350874 5.16411337,25.2819763 6.34098073,20.8073987 C6.54792597,20.0202216 6.77596313,19.2284429 7.10028943,18.4851341 C7.37112176,17.8645342 7.74527387,17.2703167 8.16833476,16.7408281 C8.58558773,16.2183953 9.12358423,15.7616116 9.8804475,16.1383277 C10.6813287,16.5371314 11.2132116,17.5160411 10.9170078,18.3007641 C10.3080936,19.9137717 9.53105545,21.4645045 8.94873537,23.0864085 C8.53178808,24.2475408 8.23802976,25.4684937 8.03139019,26.6872991 C7.63461777,29.0279701 7.89291723,31.3710952 8.23497296,33.6979614 C8.52292336,35.6591553 8.86620181,37.6120663 9.16515669,39.5714196 C9.23393465,40.0229881 9.22231882,40.4868274 9.24769024,40.9448382 C9.23790849,40.9454517 9.22812673,40.9454517 9.21865066,40.9460652" id="Fill-4" fill="#FEFEFE"></path>
                <path d="M71.695938,29.2435427 C71.6145596,28.2235034 71.4759716,26.8109506 71.3942873,25.3949873 C71.201549,22.0539712 70.3724685,18.8893692 68.8528954,15.9204039 C68.6369061,15.4984363 68.2960959,15.115534 67.9390712,14.800531 C67.3660572,14.294542 66.7266556,14.3785634 66.096432,14.7518544 C65.4686559,15.1235951 65.2177901,15.6919027 65.3349628,16.3845373 C65.4111403,16.8344087 65.5891938,17.276219 65.7788727,17.6947761 C66.2885584,18.8180595 66.9567178,19.884295 67.3351579,21.048504 C69.1055967,26.4962576 69.68167,32.0072599 68.0602209,37.6289474 C67.6998309,38.8777979 67.5725625,40.2029187 67.4306092,41.5032363 C67.3972624,41.8061476 67.6732147,42.3177174 67.9335644,42.4287126 C68.1728046,42.5307165 68.6494494,42.3019053 68.9045982,42.0808451 C69.7716145,41.3305427 70.1228265,40.3036825 70.3951076,39.1959013 C71.1669785,36.0539324 71.6840066,32.8856099 71.695938,29.2435427 M71.9939175,29.6937241 C72.0728484,33.3218394 71.3747076,36.8401997 70.4159111,40.2946913 C70.1659632,41.1947441 69.4096949,42.0039546 68.7418414,42.7155017 C68.1761698,43.318224 67.2063597,42.9095882 67.126511,41.9940333 C67.0457445,41.068867 67.1800494,40.102465 67.3553495,39.1807092 C67.6826986,37.4624546 68.2232836,35.7798549 68.4692544,34.0522991 C69.039209,30.0512029 68.5157563,26.1158357 67.3412765,22.2855728 C66.8924717,20.8227931 66.1053041,19.4700785 65.5347375,18.0414035 C65.2642921,17.364271 64.9403082,16.6055975 65.0094492,15.9222642 C65.0740013,15.2820268 65.4906831,14.4765368 66.0043459,14.1475819 C66.424393,13.8784652 67.3492308,14.0027921 67.8093552,14.3159349 C68.4466153,14.7499941 68.9832232,15.4584409 69.3448369,16.1640972 C71.5184964,20.4070264 71.8498227,25.0353382 71.9939175,29.6937241" id="Fill-6" fill="#FEFEFE"></path>
                <path d="M10.4225739,44.2938681 C9.74051582,44.4333626 9.44684768,44.6580715 9.48179358,45.1842405 C9.49620109,45.4016536 9.48087395,45.6307399 9.54739377,45.8341452 C10.1938928,47.818879 10.8207732,49.8103249 11.5276612,51.7757979 C11.8501444,52.6722987 12.6260046,53.2127673 13.5627998,53.50985 C13.7301723,53.562963 13.9950254,53.5828074 14.1112052,53.4940912 C14.5777635,53.1389344 14.7111097,52.085721 14.3588919,51.5913615 C12.925497,49.5803631 11.5567828,47.5486447 11.1147479,45.0821001 C11.062329,44.7902704 10.6616774,44.5553475 10.4225739,44.2938681 M10.3462447,44.0002874 C10.9351137,43.9926998 11.3627411,44.2527201 11.4556236,44.8013599 C11.8780398,47.2930019 13.1943352,49.3775414 14.6758573,51.3975866 C15.2647263,52.2001183 15.0243966,53.3534292 14.1725138,53.9201625 C14.0502031,54.001583 13.8288791,54.0193846 13.6786731,53.9796958 C12.6306027,53.7036249 11.6861439,53.2121837 11.3176793,52.1972 C10.5133106,49.9827962 9.76228037,47.7482562 9.07960923,45.4973737 C8.78563454,44.5273318 9.32760247,43.9856959 10.3462447,44.0002874" id="Fill-8" fill="#FEFEFE"></path>
                <path d="M66.0378588,44.5520684 C64.8703639,45.6948912 63.8120479,46.7996623 62.6811546,47.8216706 C61.1113557,49.2397349 60.9477438,50.5151049 62.1837492,52.2223629 C62.4530989,52.5946365 62.6849086,52.6279319 62.9939881,52.3117847 C64.5866238,50.6825328 65.900212,48.8687297 66.4820824,46.6144768 C66.6810446,45.8442446 66.6932451,45.0429368 66.0378588,44.5520684 M65.4950925,44 C66.6410019,44.2676311 67.1984713,45.0752809 66.9360039,46.2453742 C66.356949,48.827824 64.8969547,50.8848417 63.0725094,52.7065723 C62.6545637,53.1238738 62.2494442,53.1235567 61.9616374,52.5270945 C61.9047016,52.4091339 61.8443248,52.2886365 61.7636137,52.187165 C60.3924642,50.4583442 60.9859095,48.7231815 62.6057617,47.3977099 C63.5057839,46.6610902 64.2709748,45.7507006 65.061818,44.885656 C65.2717294,44.6560767 65.3515019,44.3040974 65.4950925,44" id="Fill-10" fill="#FEFEFE"></path>
                <path d="M60,55.7676862 C59.6066771,56.4447011 58.3884542,56.2132402 58.7396974,57.338815 C57.7506521,57.5228481 56.8638498,57.9276542 56.3213354,58.843144 C56.261172,58.9453475 56.0034777,59.0278451 55.8786298,58.9911053 C55.2585637,58.8084082 54.6520605,58.5826252 54,58.3578442 C54.2872544,57.9640601 54.528256,57.6334016 54.8193358,57.2349414 C55.0669449,57.3585209 55.3625456,57.5064822 55.7527387,57.7015373 C55.8981047,57.3705448 56.0344288,57.0605942 56.1801426,56.7302698 C56.4621805,56.903615 56.7351765,57.0712822 57.1058946,57.2990691 C57.3215093,55.6982145 56.2250043,55.4039619 55.0787689,55.1524611 C55.0832899,55.0769774 55.0878108,55.0014938 55.0923318,54.9260101 C55.848722,54.6367675 56.6051122,54.3475248 57.3618501,54.0582821 C57.3361155,53.9684365 57.3107286,53.878925 57.2849939,53.7894134 C57.0777256,53.7089197 56.8704573,53.6287601 56.50739,53.4878128 C57.55486,53.0980366 58.4239263,52.6748605 59.5249522,53.3759233 C59.1191097,53.5723144 58.8106416,53.7216117 58.5004347,53.871577 C59.013389,54.520202 59.5242567,55.166155 60,55.7676862" id="Fill-12" fill="#FEFEFE"></path>
                <path d="M20.7582513,59 C20.3671106,58.8901239 20.0214244,58.7929522 19.6757383,58.6961239 C19.7127968,58.6391257 19.7498552,58.5824708 19.7872032,58.5254726 C19.5506659,58.2737876 19.3413434,57.9657911 19.0712218,57.7848389 C18.7356688,57.5599363 18.6635785,57.3473947 18.9009844,56.9848035 C18.9991314,56.834754 19.0729589,56.6623858 19.2104806,56.3993699 L18.2127968,56.3993699 C18.1980313,56.3574796 18.1832658,56.315246 18.1687898,56.2733557 C18.4452808,56.1013309 18.7220614,55.9289628 19.0877244,55.7016566 C18.6661841,55.4571823 18.3332368,55.263869 18,55.0708991 C18.2249566,54.7354336 18.4499131,54.4003115 18.6899247,54.0425274 C18.7075854,54.0528283 18.5828025,54.0140283 18.5014476,53.9213203 C18.3804285,53.7839752 18.1962942,53.5961557 18.2104806,53.4533168 C18.2275622,53.281292 18.4284887,52.994584 18.5414013,53.0000778 C19.0822235,53.0261734 19.6574986,53.0199929 20.1485235,53.2459256 C20.6311523,53.4680814 20.4368848,54.6341415 19.8537927,55.0533876 L19.8537927,54.4058053 C19.5770122,54.5822938 19.3604517,54.720669 19.1496815,54.8549238 C19.477128,55.8826088 20.0587724,56.2949876 21,56.0237309 C20.9808917,56.1167823 20.9614939,56.2098336 20.9420961,56.3028849 C20.7637522,56.4086407 20.5492183,56.4728495 20.4189346,56.6332 C20.320498,56.7544071 20.2449334,57.0572531 20.3048639,57.1788035 C20.7431963,58.0701734 20.7547771,58.0622761 20.7582513,59" id="Fill-14" fill="#FEFEFE"></path>
                <path d="M49.5324766,60.378091 C50.832486,60.3631473 51.2205627,59.7992554 51.505068,59 C51.6405318,59.2979404 51.7191575,59.4709606 51.8100982,59.6712999 L52.604566,59.6712999 C52.66393,59.8074278 52.7318198,59.9638698 52.7873946,60.0911249 C53.8679466,59.8578628 54.9339733,59.6278697 56,59.3978765 C55.6119233,59.8074278 55.3302599,60.3103773 54.4559032,60.1046677 C54.2721273,60.061471 53.9007863,60.1203119 53.8240551,60.219781 C53.4836591,60.6617882 52.9856958,60.5368681 52.4615239,60.5455074 C51.4018125,60.5630196 50.344943,60.6713615 49.2852316,60.7245985 C48.9612555,60.7409432 48.6315956,60.7005485 48.2296252,60.6825693 C48.0389024,61.0225389 47.7082952,61.0949225 47.1743345,60.8731017 C46.872462,60.7474811 46.4556506,60.7722316 46,60.6309668 C46.2235625,60.5781968 46.453756,60.4714893 46.6697401,60.485032 C46.9820329,60.5048792 47.2845369,60.6115866 47.5911459,60.6814018 C47.6284063,60.6398396 47.6656667,60.5980439 47.7032429,60.5564817 C47.577568,60.4093795 47.40737,60.2727845 47.3375857,60.112373 C47.256118,59.9241756 47.2618018,59.715197 47.2295936,59.5153248 C47.4979949,59.5188272 47.7686065,59.5094874 48.0338501,59.5316695 C48.1509994,59.5414763 48.2577284,59.6159614 48.4604503,59.6976849 C48.1317377,59.771236 47.8983864,59.823539 47.6650352,59.875842 C47.8876504,60.274419 48.5507594,60.430861 48.7386403,60.1018657 C49.1204017,59.4343018 49.7689854,59.6519197 50.57861,59.6540212 C50.1984275,59.9171707 49.9271843,60.1049012 49.5324766,60.378091" id="Fill-16" fill="#FEFEFE"></path>
                <path d="M37.9926857,62.9010295 C38.0220577,63.4593823 38.0220577,63.4593823 36.7827603,64 C36.4816975,63.4352258 36.0571389,63.2597085 35.4142931,63.6407094 C35.2610915,63.7312201 34.9483466,63.5798593 34.7070291,63.5645704 C34.0418205,63.5229844 33.3659312,63.5453063 32.714741,63.4367547 C32.4457204,63.3921109 32.2164187,63.0896952 32.0038056,62.875344 C31.9730985,62.8441545 32.1359795,62.5506065 32.2137485,62.5490776 C32.4904459,62.5426562 32.7744863,62.5924982 33.0455096,62.6576292 C33.1650001,62.6860667 33.259124,62.8022628 33.4453691,62.9371114 C33.9847454,62.2225054 34.7290581,62.1387218 35.5838495,62.2750994 C35.8114824,62.3111813 36.1379119,62.1173173 36.3375078,61.9485272 C36.6706128,61.6665987 36.9379646,61.3195393 37.2333532,61 C37.3167964,61.0556518 37.3999057,61.1113036 37.4833488,61.1672612 C37.0441042,61.7418204 36.6045258,62.3160738 36.0911837,62.987565 C36.7941086,62.9557639 37.3858873,62.9291611 37.9776659,62.9025584 C37.9776659,62.9022526 37.9926857,62.9010295 37.9926857,62.9010295" id="Fill-18" fill="#FEFEFE"></path>
                <path d="M29,59.4060648 C27.9925842,59.5589972 26.9858477,59.7146687 25.9780923,59.8616663 C25.8395132,59.881753 25.6893858,59.8164714 25.5579394,59.8616663 C24.8647042,60.1013365 24.2302293,60.1702702 23.9900934,58.8669211 C23.6633456,59.1778075 23.4286442,59.4019562 23.1936032,59.6256483 L23,59.4978242 C23.1290688,58.9983973 23.2577979,58.4994269 23.3868667,58 C23.435777,58.1205198 23.4846872,58.2405832 23.5332579,58.3606465 C24.1385225,58.3606465 24.7437871,58.3647551 25.3487121,58.3579074 C25.4879706,58.3565379 25.6560996,58.2387571 25.7617322,58.3086038 C26.7732239,58.9783107 27.8244551,59.2503934 28.9694311,58.7404666 C28.9796207,58.9623327 28.9898104,59.1841987 29,59.4060648" id="Fill-20" fill="#FEFEFE"></path>
                <path d="M45,61.1937448 C43.3333333,61.7957376 41.6666667,62.3980072 40,63 C40.6034315,62.451979 41.4427764,62.0650429 41.7082602,61.3664545 C42.7851433,61.2455024 43.8811984,61.1228896 44.9772535,61 L45,61.1937448 Z" id="Fill-22" fill="#FEFEFE"></path>
                <path d="M30.6206154,61 C30.5863928,61.3651818 30.568976,61.5495207 30.5616426,61.627388 C31.3680116,61.7497509 32.1102134,61.8625791 33,61.9979728 C32.3937718,62.3841311 31.9155726,62.7149877 31.4092621,62.9883178 C31.3105666,63.0413947 31.0755921,62.9025049 30.9472575,62.7950798 C30.7116718,62.5986635 30.5173366,62.3494881 30.2903065,62.1406766 C29.7754403,61.6667984 29.9823035,61.3664531 30.6206154,61" id="Fill-24" fill="#FEFEFE"></path>
                <path d="M37.0913108,62.528877 C37.0913108,62.528877 37.0765832,62.531016 37.0765832,62.5315508 C37.0425462,62.2946524 37.008182,62.057754 37,62 L38.8635248,62 C38.882507,62.1374332 38.9247259,62.4475936 39,63 C38.289478,62.8245989 37.690558,62.6770053 37.0913108,62.528877" id="Fill-26" fill="#FEFEFE"></path>
                <path d="M55,58.6823194 C54.2299391,59.159182 53.5697288,59.2215799 53,58 C53.6394577,58.2181393 54.279192,58.4362786 55,58.6823194" id="Fill-28" fill="#FEFEFE"></path>
                <path d="M22.3012368,57 C23.3297526,58.196862 23.217478,58.635695 22,59 C22.093228,58.3822015 22.1739254,57.8462859 22.3012368,57" id="Fill-30" fill="#FEFEFE"></path>
            </g>
        </g>
    </g>
</svg>