<?xml version="1.0" encoding="UTF-8"?>
<svg width="40px" height="52px" viewBox="0 0 40 52" version="1.1" xmlns="http://www.w3.org/2000/svg" xmlns:xlink="http://www.w3.org/1999/xlink">
    <!-- Generator: Sketch 51.3 (57544) - http://www.bohemiancoding.com/sketch -->
    <title>ios-water-outline</title>
    <desc>Created with Sketch.</desc>
    <defs></defs>
    <g id="Page-1" stroke="none" stroke-width="1" fill="none" fill-rule="evenodd">
        <g id="Desktop-HD-Copy-5" transform="translate(-1235.000000, -2337.000000)" fill="#000000" fill-rule="nonzero">
            <g id="Group-4" transform="translate(80.000000, 2270.000000)">
                <path d="M1174.9625,69.5006011 C1178.7375,72.5138254 1182.225,76.2522241 1185.35,80.653282 C1190.4875,87.8675162 1192.975,94.5816302 1192.975,101.19572 C1192.975,109.910315 1184.9,116.999519 1174.9625,116.999519 C1168.825,116.999519 1163.175,114.286367 1159.85,109.760279 C1159.175,108.84756 1158.6125,107.872325 1158.175,106.872085 C1157.3875,105.046646 1156.975,103.146189 1156.975,101.19572 L1156.975,101.045684 C1156.975,100.958163 1156.9875,100.858139 1156.9875,100.758115 C1157.1125,94.181534 1159.6125,87.6049531 1164.625,80.653282 C1168.9375,74.6768454 1172.7875,71.2135129 1174.9625,69.5006011 Z M1175,67 C1172.1125,69.0004809 1167.675,73.0139457 1163.025,79.4779995 C1158.375,85.9420534 1155.1625,92.9562395 1155.0125,100.733109 C1155.0125,100.883145 1155,101.045684 1155,101.19572 C1155,103.48377 1155.4875,105.671796 1156.3625,107.672277 C1156.875,108.835057 1157.5125,109.922818 1158.2625,110.948064 C1161.825,115.799231 1167.9875,119 1174.9875,119 C1186.0375,119 1195,111.023082 1195,101.19572 C1195,93.2688146 1191.625,85.9920654 1187,79.4905025 C1182.375,72.9889396 1177.925,69.188026 1175,67 Z M1176.225,112.38591 C1174.25,112.38591 1172.1375,112.210868 1170.4875,111.460688 C1181.3625,109.760279 1185.3625,105.759317 1187.9625,96.1820149 C1188.6125,97.5823515 1188.7375,99.1452272 1188.7375,100.783121 C1188.7375,107.18466 1183.1375,112.38591 1176.225,112.38591 Z" id="ios-water-outline"></path>
            </g>
        </g>
    </g>
</svg>