<?xml version="1.0" encoding="UTF-8"?>
<svg width="93px" height="93px" viewBox="0 0 93 93" version="1.1" xmlns="http://www.w3.org/2000/svg" xmlns:xlink="http://www.w3.org/1999/xlink">
    <!-- Generator: Sketch 51.3 (57544) - http://www.bohemiancoding.com/sketch -->
    <title>ios-sunny-outline</title>
    <desc>Created with Sketch.</desc>
    <defs></defs>
    <g id="Page-1" stroke="none" stroke-width="1" fill="none" fill-rule="evenodd">
        <g id="Desktop-HD-Copy-5" transform="translate(-966.000000, -2331.000000)" fill="#000000" fill-rule="nonzero">
            <g id="Group-4" transform="translate(80.000000, 2270.000000)">
                <path d="M930.711538,139.692308 L934.288462,139.692308 L934.288462,154 L930.711538,154 L930.711538,139.692308 Z M930.711538,61 L934.288462,61 L934.288462,75.3076923 L930.711538,75.3076923 L930.711538,61 Z M886,105.711538 L900.307692,105.711538 L900.307692,109.288462 L886,109.288462 L886,105.711538 Z M964.692308,105.711538 L979,105.711538 L979,109.288462 L964.692308,109.288462 L964.692308,105.711538 Z M908.456817,128.997978 L910.985925,131.52731 L900.869046,141.64419 L898.339938,139.115305 L908.456817,128.997978 Z M964.131178,73.3542452 L966.660286,75.8833534 L956.543183,86.0004567 L954.014075,83.471125 L964.131178,73.3542452 Z M911.017224,83.4720192 L908.487892,86.0011274 L898.371236,75.8842476 L900.900344,73.3546923 L911.017224,83.4720192 Z M966.630553,139.115529 L964.101445,141.645084 L953.984341,131.527981 L956.513673,128.998873 L966.630553,139.115529 Z M932.5,89.6153846 C942.358894,89.6153846 950.384615,97.6411058 950.384615,107.5 C950.384615,117.358894 942.358894,125.384615 932.5,125.384615 C922.641106,125.384615 914.615385,117.358894 914.615385,107.5 C914.615385,97.6411058 922.641106,89.6153846 932.5,89.6153846 Z M932.5,86.0384615 C920.673798,86.0384615 911.038462,95.6737981 911.038462,107.5 C911.038462,119.326202 920.673798,128.961538 932.5,128.961538 C944.326202,128.961538 953.961538,119.326202 953.961538,107.5 C953.961538,95.6737981 944.326202,86.0384615 932.5,86.0384615 Z" id="ios-sunny-outline"></path>
            </g>
        </g>
    </g>
</svg>