<?xml version="1.0" encoding="UTF-8"?>
<svg width="38px" height="71px" viewBox="0 0 38 71" version="1.1" xmlns="http://www.w3.org/2000/svg" xmlns:xlink="http://www.w3.org/1999/xlink">
    <!-- Generator: Sketch 51.3 (57544) - http://www.bohemiancoding.com/sketch -->
    <title>Group 3</title>
    <desc>Created with Sketch.</desc>
    <defs>
        <polygon id="path-1" points="0 0 38 0 38 71 0 71"></polygon>
    </defs>
    <g id="Page-1" stroke="none" stroke-width="1" fill="none" fill-rule="evenodd">
        <g id="Desktop-HD-Copy-5" transform="translate(-1244.000000, -1658.000000)">
            <g id="Group-3" transform="translate(1244.000000, 1658.000000)">
                <mask id="mask-2" fill="white">
                    <use xlink:href="#path-1"></use>
                </mask>
                <g id="Clip-2"></g>
                <path d="M15.1707473,46.5947695 C14.6409212,46.9943172 14.5693067,48.2173488 14.9829109,48.9131701 C15.0536151,48.0375975 15.1121812,47.3161835 15.1707473,46.5947695 M15.1589127,45.0390324 C15.2478239,45.0471619 15.3367352,45.0552913 15.4256464,45.0631197 C16.0486321,41.4578563 16.6719212,37.852894 17.2952103,34.2479317 C17.2147956,34.2343826 17.1349879,34.2211346 17.0545733,34.2075855 C16.4224841,37.8182685 15.7906984,41.4286505 15.1589127,45.0390324 M1.36583457,37.3308022 C1.34641368,38.7441233 1.58007123,40.0987316 2.35144459,41.2669646 C5.07461709,45.388599 8.46265153,48.9116646 12.3407599,51.9785773 C12.4135882,52.0360857 12.5449827,52.0213322 12.8878827,52.0842603 C8.68690208,47.2592773 4.2841263,42.8654566 1.36583457,37.3308022 M32.3548944,41.5280105 C32.2225896,41.5822069 32.0817881,41.6207465 31.9594972,41.691804 C27.6298532,44.2044082 23.2862505,46.6947317 18.9863447,49.2567149 C18.1758261,49.7396648 17.5391852,50.5092533 16.8218261,51.1466629 C16.8806957,51.2189248 16.9392618,51.2917888 16.9978279,51.3643517 C22.7099963,49.0324021 27.6620191,45.5015082 32.3548944,41.5280105 M4.01193043,25.0303324 L3.91330874,25.0315368 C3.99250954,25.4708285 4.02255123,25.925777 4.15789053,26.3470033 C5.51340776,30.5616748 6.74724099,34.82151 8.29605673,38.9654252 C9.64338077,42.5697853 11.3454394,46.0443752 12.9118554,49.5668386 C13.0945331,49.9775267 13.4128536,50.3285988 13.6683596,50.7076723 C13.7354224,50.6847894 13.8021817,50.6622076 13.8692444,50.6393246 C13.8692444,50.3779777 13.9372175,50.0931456 13.8549822,49.8604023 C13.6741252,49.34644 13.4028397,48.8643933 13.1940651,48.3585605 C11.2674524,43.6829186 9.3038187,39.0214281 7.43880664,34.3210968 C6.22135978,31.2535819 5.14926613,28.1291608 4.01193043,25.0303324 M14.077412,47.5805414 C14.6794595,46.4987215 14.5471547,45.4301496 14.1353712,44.3763312 C12.2943318,39.6621497 10.9822082,34.7877878 9.66462236,29.9143292 C9.33416383,28.6900933 8.95697379,27.477901 8.60163225,26.259988 C8.53032118,26.27986 8.45931356,26.3000331 8.38830594,26.3199051 C9.37846773,33.6352115 10.9897945,40.7894343 14.077412,47.5805414 M21.9674508,2.33018015 C20.5042084,4.65821561 17.6805935,24.4079774 18.5894303,25.9007864 C18.7623976,24.9734262 18.8822609,24.0517867 19.1225943,23.1620629 C19.243368,22.7146417 19.6038682,22.3358692 19.8184083,21.9074168 C20.1006181,21.3431723 20.6292304,20.703655 20.5272707,20.2014353 C20.4237938,19.6913872 20.4559596,19.2728707 20.5227189,18.7992546 C20.606168,18.2055032 20.7618386,17.5855568 20.6714101,17.0104731 C20.3096961,14.7113423 20.7673007,12.4661069 21.0209861,10.2082256 C21.3144235,7.59776685 21.6460959,4.99212551 21.9674508,2.33018015 M14.5935828,44.408849 C14.6931148,44.4043326 14.7932538,44.3992141 14.8930893,44.3943966 C15.026001,42.5881518 15.7485187,40.9333558 14.9868558,38.9332084 C14.0070113,36.3615904 13.5800553,33.5695737 13.0444636,30.8477112 C12.2233242,26.6754935 11.5144619,22.4812962 10.7524955,18.297637 C10.6796672,17.897186 10.568604,17.5042623 10.4754444,17.1077255 C10.3061185,17.7047889 10.2172073,18.2735497 10.2175107,18.8429128 C10.2184211,20.9930035 10.197483,23.1452018 10.2824493,25.2928838 C10.3677192,27.4643519 11.2134381,29.4783495 11.735071,31.561598 C12.3844569,34.1542924 12.7834954,36.8078072 13.347915,39.4230835 C13.7093255,41.096246 14.1745165,42.7477301 14.5935828,44.408849 M16.5902928,32.2806032 C16.4676984,32.276689 16.3454075,32.2730759 16.2234201,32.2694629 C15.2717966,24.8755717 13.7481673,17.5500281 13.6801942,10.0353994 C13.5545653,10.100134 13.494482,10.1666751 13.4680817,10.2443566 C12.8277993,12.1135294 12.4824717,14.0332855 12.6542252,16.0060336 C12.9340073,19.2246961 13.216824,22.4448642 13.5988692,25.6526875 C14.0197563,29.1814738 14.5435133,32.6982164 15.0493667,36.2161634 C15.163161,37.0104414 15.3889288,37.7890627 15.5631099,38.5746091 C15.8726303,37.9652009 16.0085765,37.3816866 16.1451296,36.7987745 C16.7092457,34.387939 17.4627154,32.0011908 17.777091,29.5587408 C18.0225832,27.6522327 17.7868015,25.6725595 17.6514622,23.7329314 C17.4156804,20.362519 17.0615527,17.0005371 16.8206123,13.6304257 C16.7271493,12.3257985 16.8054398,11.0091277 16.8054398,9.69787644 C16.7128871,9.69456443 16.6203344,9.69155352 16.5280852,9.68824152 C15.9032789,10.7932454 15.6210691,12.0165781 15.6447383,13.2597827 C15.718477,17.0941764 15.8210436,20.9294733 16.01768,24.7590494 C16.1293501,26.932023 16.4558638,29.0941574 16.6652452,31.2629157 C16.6974111,31.5968256 16.6182103,31.9412737 16.5902928,32.2806032 M26.1502244,28.6377035 C27.4238098,27.2141453 28.7083194,25.799921 29.9685529,24.3643192 C31.2591315,22.8937908 32.6774631,21.5196116 33.5146854,19.7025275 C33.6315142,19.4481056 33.9437657,19.2822045 34.1658921,19.0756561 C34.2460032,19.131659 34.3267213,19.187963 34.4068324,19.243966 C34.2165684,19.6206308 34.0727325,20.0298134 33.8290611,20.3688419 C30.3694121,25.1841899 26.8687972,29.9703321 23.4413141,34.8079609 C22.2147637,36.539234 21.1575392,38.3885348 20.0972801,40.2333193 C21.7404692,38.7727269 23.3514925,37.2744982 25.0341303,35.860575 C28.1967004,33.2037482 31.4196573,30.6179788 34.5755514,27.9536247 C35.4740709,27.1951766 36.2421063,26.2807633 37.0423075,25.412718 C37.2783927,25.1570917 37.4179803,24.8144502 37.6018718,24.5115527 C37.7344801,24.6115149 37.8673918,24.711176 38,24.8111382 C37.8904541,25.0767004 37.8400811,25.3919427 37.6616517,25.5993944 C36.7109386,26.7043983 35.7338252,27.7880247 34.7548912,28.8695435 C31.3762637,32.600964 27.9721464,36.3104049 24.6199192,40.0653105 C22.8932809,41.999519 20.6289269,43.1945491 18.5457333,44.6430978 C18.316931,44.8017727 18.0872183,44.9595444 17.8581125,45.1179183 C17.9242649,45.2088477 17.9907208,45.3003794 18.0568732,45.39161 C24.533739,40.9499158 31.0109083,36.5085228 37.5845751,32.0005886 C37.301455,32.3540694 37.0932873,32.6807531 36.8216984,32.9421001 C31.8681584,37.7101769 26.9531567,42.5207075 21.4206315,46.649267 C21.0021721,46.9614983 20.6398511,47.3480991 20.3275997,47.8280382 C20.4841806,47.757884 20.6477409,47.7006767 20.7949148,47.6154679 C23.9329053,45.7950719 27.066951,43.9683529 30.2067622,42.1512688 C30.881638,41.7604527 31.6011212,41.4400919 32.2529347,41.016758 C32.8571064,40.6244365 33.3920911,40.1288407 33.9698625,39.6949686 C35.0213215,38.9061102 36.0815805,38.1292955 37.1381981,37.3473622 C37.2431923,37.4400983 37.3481865,37.5325332 37.4534841,37.6252692 C37.2923514,37.8935413 37.1928194,38.2379894 36.9624998,38.4186439 C33.3957325,41.2133704 29.880552,44.0797566 26.2112181,46.7368845 C23.0525929,49.0242726 19.6982416,51.0382702 15.9891556,52.3832436 C15.0775877,52.7135404 14.5574721,53.3590795 14.4606711,54.3373241 C13.9384313,59.622374 13.4116398,64.9068218 12.8781723,70.1906674 C12.8499513,70.4724886 12.7485985,70.7467825 12.5695622,71 C12.3349943,68.0742989 12.5983901,65.1916539 12.9601041,62.3168372 C13.3209078,59.4483435 13.7214636,56.5846671 14.1044192,53.7191843 C14.01217,53.7056352 13.9202242,53.6923872 13.8276716,53.6791392 C13.011084,59.2204176 12.1944964,64.7613949 11.3779087,70.3026733 C11.2586524,70.2900275 11.139396,70.2770806 11.0201396,70.2644347 C11.0966093,69.4237887 11.1233131,68.5753143 11.2574386,67.7440021 C11.9687285,63.3182658 12.7021705,58.8961426 13.4419849,54.4749226 C13.553655,53.8052963 13.3576254,53.3401107 12.7950266,52.9303259 C8.48905179,49.796571 4.94261575,45.9462195 2.01188252,41.5319247 C1.69993452,41.0619217 1.49358759,40.5009892 1.33913085,39.9539069 C0.876367528,38.3168752 0.460942616,36.6662944 0.0352003578,35.0187246 C-0.00576557584,34.8606518 0.0103173462,34.6878256 0,34.5219245 C0.0600833693,34.4866968 0.120166739,34.4517703 0.180250108,34.4168437 C0.477328989,34.8175958 0.808394423,35.1981748 1.06632808,35.6230142 C2.40697619,37.8324198 3.61744366,40.1300451 5.09100347,42.2476179 C6.43225848,44.1755035 8.05238529,45.9118952 9.6612844,47.6531043 C5.43724147,42.0594361 1.95968888,36.1481169 0.836918851,29.1465472 C0.922188683,29.1013836 1.00745852,29.056521 1.09272835,29.0119595 C1.22746075,29.251628 1.43714564,29.4777473 1.48509096,29.7336746 C2.03858624,32.6819575 3.17713574,35.3827436 4.89224282,37.8489798 C4.97235398,37.9636955 4.9978439,38.1160475 4.92167761,38.336145 C4.56906713,37.8571093 4.21645665,37.3783746 3.86384617,36.8993389 C5.29765384,40.0135229 6.49962468,43.2580793 8.9487806,45.7806195 C9.00825707,45.7478006 9.06803699,45.7146806 9.12751346,45.6818617 C7.81205181,43.409528 6.49659016,41.1371944 5.18112852,38.8648608 C5.26488109,38.8172884 5.34863367,38.7694149 5.4326897,38.7218426 C7.64151215,42.3924427 9.8503346,46.0630428 12.0588536,49.7339441 C12.1398751,49.6899848 12.2208966,49.6463266 12.3019181,49.6023673 C12.2111862,49.3840764 12.1271301,49.1621723 12.0288119,48.9468922 C8.76124766,41.7833356 5.84174213,34.4903099 3.88508776,26.8546427 C3.55220162,25.5569405 3.52580135,24.1812559 3.37468257,22.8395944 C3.35677894,22.6797151 3.44447639,22.5080933 3.64171977,22.3105776 C4.80606264,25.7713173 5.8681424,29.2705967 7.16296935,32.6828608 C8.45749285,36.0954259 9.98476355,39.4209758 11.4825995,42.7691075 C8.86229697,34.4827827 7.6536502,25.9601014 6.96663632,17.3482972 C7.0503889,17.3148761 7.13414147,17.281455 7.2175906,17.2480339 C7.34868158,17.5488237 7.54167665,17.8384733 7.60054621,18.1525112 C8.06270263,20.6121234 8.35796081,23.1117807 8.97396707,25.5313478 C10.1458962,30.1380398 11.4968617,34.6998692 12.7762126,39.2794631 C12.8089854,39.3965874 12.8748343,39.5046791 13.0298979,39.5910922 C12.6994394,37.9697173 12.4090365,36.3387075 12.0300257,34.7281718 C11.4395094,32.2200839 10.6966604,29.7442128 10.1871656,27.2210704 C9.54779359,24.0541955 9.57631802,20.8421569 9.90070752,17.6298172 C10.0251226,16.3932366 10.0575919,15.1479243 10.1322409,13.9065262 C10.2153866,13.8875574 10.2985323,13.8685887 10.3819814,13.84962 C10.5422037,14.2895139 10.7755578,14.7173642 10.8520275,15.1711083 C11.6922843,20.1845742 12.5043202,25.2028576 13.3357769,30.2178289 C13.4450194,30.8775193 13.6210212,31.5263703 13.9441969,32.1550483 C13.8194784,30.9440604 13.6962771,29.7324703 13.5700414,28.5214823 C13.1424784,24.433269 12.6836599,20.3477655 12.2976698,16.255638 C12.0561225,13.6969668 12.6915497,11.2256121 13.2599141,8.75696712 C13.2872247,8.637434 13.3457908,8.52121288 13.4089087,8.41462668 C13.4431987,8.3571183 13.5172408,8.32309502 13.706291,8.17254953 C13.8385958,8.74612785 14.0085286,9.23600287 14.0582946,9.73762044 C14.4949611,14.1272258 14.910386,18.5186378 15.3343076,22.9094476 C15.3385559,22.9534068 15.3752735,22.9943552 15.4653986,23.0404221 C15.1464712,17.5437052 15.0633255,12.0614406 16.4561672,6.60868298 C16.5296025,6.78933757 16.6537141,6.96607797 16.6685832,7.15124893 C16.8794819,9.82162483 17.0600355,12.4944095 17.280948,15.1641832 C17.4669637,17.4103219 17.6936419,19.6534497 17.9112165,21.8971797 C17.9297271,22.0880714 18.0119624,22.2729412 18.1069426,22.4581122 C18.5672784,14.8411126 19.7995943,7.3623137 21.8818776,0.00274687372 C22.4265728,-0.0336851349 22.5795122,0.297213852 22.5330842,0.702181221 C22.1337422,4.18640604 21.6800824,7.66491014 21.3180649,11.152447 C21.1502563,12.7632837 21.143277,14.3906805 21.0801591,16.0111521 C21.0707521,16.2475085 21.1569323,16.4877791 21.2346158,16.9288774 C23.279878,12.9526699 25.2307668,9.15952576 27.181959,5.36638159 C27.2620702,5.38775905 27.3421813,5.40883542 27.4225959,5.42991179 C27.3913405,5.66566603 27.3989267,5.91466827 27.3230639,6.13536796 C26.1790523,9.47356366 25.0043921,12.8015223 23.8782841,16.1454387 C23.1618354,18.274453 22.5133598,20.4263502 21.9723061,22.6252177 C22.5194289,21.7303753 23.0692827,20.8373394 23.6127641,19.9406905 C25.3433472,17.0860469 27.0690751,14.2280913 28.8069411,11.3779641 C28.9516873,11.1401022 29.1738137,10.9489095 29.3601329,10.7360381 C29.4356923,10.788428 29.5112517,10.8405167 29.5871145,10.8929065 C29.4014023,11.314735 29.234504,11.7458973 29.0266398,12.1568865 C26.9589223,16.2511216 24.8508457,20.3260869 22.8298596,24.443205 C22.1279766,25.8739893 21.6369923,27.4068435 21.0237171,28.9592686 C24.9688883,23.652239 28.8630796,18.413557 32.7572709,13.1751762 C32.8143197,13.1872198 32.8707617,13.1992634 32.9275071,13.2113071 C32.7976299,13.5912839 32.7348155,14.0131124 32.5260409,14.3440114 C31.2263587,16.4037747 29.8140961,18.3972981 28.589063,20.4986121 C25.9745261,24.9836633 23.4510245,29.5208033 20.8920192,34.0374691 C20.8352738,34.1380335 20.8034114,34.2524481 20.715714,34.4710401 C22.0812451,32.9667896 23.3496718,31.5591892 24.6323607,30.1639336 C24.9509846,29.8170768 25.3145193,29.5111684 25.6571159,29.1862912 C25.6452813,29.2338636 25.6474055,29.2919742 25.6197914,29.3272018 C23.0346893,32.6033728 20.4504975,35.8798448 17.852347,39.1451765 C17.7097248,39.3243256 17.4484532,39.4095344 17.2421063,39.5381002 C17.2147956,39.4974529 17.187485,39.4568056 17.1601744,39.4158573 C20.9114401,32.8776666 24.6630093,26.3397771 28.4148819,19.8015865 C28.0134157,20.2333509 27.6507914,20.6979343 27.282098,21.1577002 C24.0676377,25.1643179 21.0061169,29.2642738 19.1377669,34.1064189 C19.0245796,34.3996815 18.7915289,34.6550067 18.5797199,34.8988904 C18.5059812,34.9840991 18.3302828,34.9822926 18.2007091,35.019929 C18.1740054,34.8907609 18.1124048,34.7570765 18.130005,34.6339303 C18.1500327,34.490611 18.2392474,34.3566255 18.2987239,34.2187259 C20.4031591,29.3166636 22.5082012,24.4146014 24.6120295,19.5128402 C24.6982096,19.3120125 24.7798381,19.1093783 24.8629837,18.9076473 C24.0218166,19.9184098 23.2904988,20.971626 22.674796,22.0877703 C21.9738233,23.3580731 21.3839139,24.6882931 20.7305831,25.9850919 C20.4823599,26.4779779 20.1919569,26.9503896 19.920368,27.4318341 C19.8241739,27.3872726 19.7279798,27.3424101 19.6317857,27.2975475 C21.6351716,21.5238269 23.6385575,15.7504073 25.6422468,9.97668668 C22.9211985,13.833361 20.8301152,17.9167569 20.8874675,22.884457 C20.6359063,22.6619508 20.5072429,22.5484395 20.3227445,22.3849471 C19.714021,25.2127936 19.0974079,27.9470007 18.5405746,30.6932516 C17.6699727,34.9856046 16.8017983,39.2794631 16.0122179,43.5868706 C15.7105873,45.2308274 15.6353313,46.9145281 15.4426397,48.578658 C15.3403766,49.4659731 15.2080718,50.3496751 15.0888154,51.2348826 C15.1737818,51.2981117 15.2584447,51.3613408 15.3431077,51.4242688 C15.830754,51.0768098 16.3572421,50.7715036 16.7978535,50.3728591 C17.6912143,49.565032 18.5026432,48.6671787 19.4102662,47.8765138 C23.2258636,44.5506628 27.0678613,41.2546199 30.891045,37.9368984 C31.3972019,37.4976066 31.8490409,36.9971934 32.3260665,36.5250828 C31.9774009,36.548869 31.7446537,36.6882741 31.5197962,36.8391207 C29.3024771,38.3268112 27.0969926,39.8316639 24.8678389,41.301289 C22.6395956,42.770613 20.3885934,44.2056126 18.1476051,45.6550646 C17.6293102,45.9898777 17.1070704,46.0251054 16.3821251,45.6707213 C17.2575823,45.0405379 17.9746379,44.4600345 18.7529906,43.9758802 C21.2385607,42.4285736 23.706834,40.8788583 25.6031016,38.5827385 C27.0605785,36.8183454 28.5966493,35.1183857 30.105106,33.3958442 C31.221807,32.121025 32.3494322,30.8561418 33.4728092,29.5870433 C33.2327791,29.5879466 33.0546532,29.6626171 32.9132449,29.7809459 C30.1139061,32.1264446 27.2666219,34.4192525 24.5392011,36.8442392 C22.3950138,38.7507473 20.4095316,40.8324903 18.3260345,42.8082493 C18.0092313,43.1090392 17.5455576,43.2577782 17.1495536,43.4769724 C17.0679252,43.3782146 16.9856899,43.2794567 16.9040615,43.181 C21.4506732,38.3867283 24.1632249,32.3733392 27.9566703,27.070826 C27.3543194,27.5932188 26.7522719,28.1156117 26.1502244,28.6377035" id="Fill-1" fill="#FEFEFE" mask="url(#mask-2)"></path>
            </g>
        </g>
    </g>
</svg>