<?xml version="1.0" encoding="UTF-8"?>
<svg width="44px" height="38px" viewBox="0 0 44 38" version="1.1" xmlns="http://www.w3.org/2000/svg" xmlns:xlink="http://www.w3.org/1999/xlink">
    <!-- Generator: Sketch 51.3 (57544) - http://www.bohemiancoding.com/sketch -->
    <title>Group 11</title>
    <desc>Created with Sketch.</desc>
    <defs></defs>
    <g id="Page-1" stroke="none" stroke-width="1" fill="none" fill-rule="evenodd">
        <g id="Desktop-HD-Copy-5" transform="translate(-698.000000, -1106.000000)" fill-rule="nonzero">
            <g id="Group-11" transform="translate(698.000000, 1106.000000)">
                <path d="M10,29 C7.33333333,23.6666667 6.66666667,18.6666667 8,14 C10,7 13,5 14,4 C15,3 18,1 22,1 C26,1 30,3 32,6 C34,9 37,12 37,16 C37,20 35,29 34,29 C33,29 32,26 28,24 C24,22 18,23 16,24 C14.6666667,24.6666667 12.6666667,26.3333333 10,29 Z" id="Path-8" fill="#FBCCC4"></path>
                <g id="Group" fill="#000000">
                    <path d="M41.6428571,18.8571429 C41.1910714,18.8571429 40.7589286,18.9848214 40.4053571,19.2107143 C39.875,18.975 38.9910714,18.6901786 37.7142857,18.6116071 C37.6848214,15.8910714 37.1741071,13.3080357 36.2803571,10.9803571 C37.1151786,10.3616071 37.8321429,9.56607143 38.3723214,8.64285714 L38.5,8.64285714 C39.7964286,8.64285714 40.8571429,7.59196429 40.8571429,6.28571429 C40.8571429,4.97946429 39.80625,3.92857143 38.5,3.92857143 C37.2035714,3.92857143 36.1428571,4.97946429 36.1428571,6.28571429 C36.1428571,6.97321429 36.4375,7.59196429 36.9089286,8.02410714 C36.6142857,8.49553571 36.1919643,9.01607143 35.6321429,9.4875 C32.93125,3.82053571 27.8339286,1.13686838e-13 22,1.13686838e-13 C16.1660714,1.13686838e-13 11.06875,3.82053571 8.35803571,9.47767857 C7.79821429,9.00625 7.38571429,8.48571429 7.09107143,8.01428571 C7.5625,7.58214286 7.85714286,6.96339286 7.85714286,6.27589286 C7.85714286,4.96964286 6.80625,3.91875 5.5,3.91875 C4.19375,3.91875 3.14285714,4.96964286 3.14285714,6.27589286 C3.14285714,7.58214286 4.19375,8.63303571 5.5,8.63303571 L5.62767857,8.63303571 C6.17767857,9.55625 6.88482143,10.3517857 7.71964286,10.9705357 C6.82589286,13.2982143 6.31517857,15.88125 6.28571429,18.6116071 C4.99910714,18.6901786 4.125,18.975 3.59464286,19.2107143 C3.23125,18.9848214 2.80892857,18.8571429 2.35714286,18.8571429 C1.05089286,18.8571429 0,19.9080357 0,21.2142857 C0,22.5205357 1.05089286,23.5714286 2.35714286,23.5714286 C3.66339286,23.5714286 4.71428571,22.5205357 4.71428571,21.2142857 C4.71428571,20.96875 4.675,20.7330357 4.60625,20.5071429 C4.99910714,20.3794643 5.56875,20.2419643 6.325,20.1830357 C6.55089286,24.0133929 7.71964286,27.5294643 9.56607143,30.3875 C8.97678571,30.8294643 8.13214286,31.6642857 7.61160714,33.0098214 C6.42321429,33.1375 5.5,34.1392857 5.5,35.3571429 C5.5,36.6633929 6.55089286,37.7142857 7.85714286,37.7142857 C9.16339286,37.7142857 10.2142857,36.6633929 10.2142857,35.3571429 C10.2142857,34.5321429 9.79196429,33.8151786 9.15357143,33.3928571 C9.53660714,32.5089286 10.0866071,31.96875 10.4696429,31.6741071 C13.1705357,35.1803571 16.9714286,37.4392857 21.2142857,37.6946429 C21.3321429,37.7044643 21.4303571,37.7044643 21.5285714,37.7044643 L21.6267857,37.7044643 C21.7446429,37.7044643 21.8625,37.7142857 21.9901786,37.7142857 C22.1178571,37.7142857 22.2357143,37.7142857 22.3535714,37.7044643 L22.4517857,37.7044643 C22.55,37.7044643 22.6580357,37.6946429 22.7758929,37.6946429 C27.01875,37.4392857 30.8196429,35.1705357 33.5205357,31.6741071 C33.9035714,31.96875 34.4535714,32.5089286 34.8464286,33.4026786 C34.2080357,33.825 33.7857143,34.5517857 33.7857143,35.3669643 C33.7857143,36.6732143 34.8366071,37.7241071 36.1428571,37.7241071 C37.4392857,37.7241071 38.5,36.6732143 38.5,35.3669643 C38.5,34.1491071 37.5767857,33.1473214 36.3883929,33.0196429 C35.8580357,31.6642857 35.0232143,30.8392857 34.4339286,30.3875 C36.2803571,27.5294643 37.4491071,24.0133929 37.675,20.1928571 C38.43125,20.2419643 39.0008929,20.3794643 39.39375,20.5169643 C39.325,20.7428571 39.2857143,20.9785714 39.2857143,21.2241071 C39.2857143,22.5303571 40.3366071,23.58125 41.6428571,23.58125 C42.9491071,23.58125 44,22.5303571 44,21.2241071 C44,19.9178571 42.9491071,18.8571429 41.6428571,18.8571429 Z M38.5098214,5.5 C38.9419643,5.5 39.2955357,5.85357143 39.2955357,6.28571429 C39.2955357,6.71785714 38.9419643,7.07142857 38.5098214,7.07142857 C38.0776786,7.07142857 37.7241071,6.71785714 37.7241071,6.28571429 C37.7241071,5.85357143 38.0678571,5.5 38.5098214,5.5 Z M5.5,7.07142857 C5.06785714,7.07142857 4.71428571,6.71785714 4.71428571,6.28571429 C4.71428571,5.85357143 5.06785714,5.5 5.5,5.5 C5.93214286,5.5 6.28571429,5.85357143 6.28571429,6.28571429 C6.28571429,6.71785714 5.93214286,7.07142857 5.5,7.07142857 Z M2.35714286,22 C1.925,22 1.57142857,21.6464286 1.57142857,21.2142857 C1.57142857,20.7821429 1.925,20.4285714 2.35714286,20.4285714 C2.78928571,20.4285714 3.14285714,20.7821429 3.14285714,21.2142857 C3.14285714,21.6464286 2.78928571,22 2.35714286,22 Z M7.85714286,36.1428571 C7.425,36.1428571 7.07142857,35.7892857 7.07142857,35.3571429 C7.07142857,34.925 7.425,34.5714286 7.85714286,34.5714286 C8.28928571,34.5714286 8.64285714,34.925 8.64285714,35.3571429 C8.64285714,35.7892857 8.28928571,36.1428571 7.85714286,36.1428571 Z M36.1526786,34.5714286 C36.5848214,34.5714286 36.9383929,34.925 36.9383929,35.3571429 C36.9383929,35.7892857 36.5848214,36.1428571 36.1526786,36.1428571 C35.7205357,36.1428571 35.3669643,35.7892857 35.3669643,35.3571429 C35.3669643,34.925 35.7205357,34.5714286 36.1526786,34.5714286 Z M22,1.57142857 C26.3607143,1.57142857 30.2696429,3.99732143 32.8723214,7.80803571 C32.3321429,8.73125 31.6741071,9.59553571 30.8883929,10.3714286 C28.5116071,12.7482143 25.3589286,14.0544643 22,14.0544643 C18.6410714,14.0544643 15.4883929,12.7482143 13.1116071,10.3714286 C12.3357143,9.59553571 11.6678571,8.73125 11.1276786,7.80803571 C13.7303571,3.99732143 17.6392857,1.57142857 22,1.57142857 Z M7.85714286,18.8571429 C7.85714286,15.33125 8.73125,12.0410714 10.2142857,9.31071429 C12.6205357,12.9151786 16.6375,15.3607143 21.2142857,15.60625 L21.2142857,36.1232143 C13.7794643,35.6125 7.85714286,28.0696429 7.85714286,18.8571429 Z M22.7857143,36.1133929 L22.7857143,15.60625 C27.3526786,15.3508929 31.3794643,12.9151786 33.7857143,9.31071429 C35.2785714,12.0508929 36.1428571,15.33125 36.1428571,18.8669643 C36.1428571,28.0696429 30.2205357,35.6125 22.7857143,36.1133929 Z M41.6428571,22 C41.2107143,22 40.8571429,21.6464286 40.8571429,21.2142857 C40.8571429,20.7821429 41.2107143,20.4285714 41.6428571,20.4285714 C42.075,20.4285714 42.4285714,20.7821429 42.4285714,21.2142857 C42.4285714,21.6464286 42.075,22 41.6428571,22 Z" id="ios-bug-outline" transform="translate(22.000000, 18.862054) rotate(-180.000000) translate(-22.000000, -18.862054) "></path>
                    <circle id="Oval-4" cx="16.5" cy="7.5" r="1.5"></circle>
                    <circle id="Oval-4-Copy" cx="31.5" cy="17.5" r="1.5"></circle>
                    <circle id="Oval-4-Copy-2" cx="27.5" cy="7.5" r="1.5"></circle>
                    <circle id="Oval-4-Copy-3" cx="12.5" cy="17.5" r="1.5"></circle>
                </g>
            </g>
        </g>
    </g>
</svg>