<?xml version="1.0" encoding="UTF-8"?>
<svg width="113px" height="188px" viewBox="0 0 113 188" version="1.1" xmlns="http://www.w3.org/2000/svg" xmlns:xlink="http://www.w3.org/1999/xlink">
    <!-- Generator: Sketch 51.3 (57544) - http://www.bohemiancoding.com/sketch -->
    <title>Group 9</title>
    <desc>Created with Sketch.</desc>
    <defs></defs>
    <g id="Page-1" stroke="none" stroke-width="1" fill="none" fill-rule="evenodd">
        <g id="Desktop-HD-Copy-5" transform="translate(-664.000000, -1901.000000)" fill="#343434">
            <g id="Group-9" transform="translate(664.000000, 1901.000000)">
                <path d="M50.0088,88.0281 C49.0768,88.1861 48.1378,88.3451 47.0838,88.5241 C47.1398,89.4611 47.1818,90.1731 47.2238,90.8781 C50.4808,90.8051 50.6028,90.6821 50.0088,88.0281 Z M51.7348,88.0051 C52.0588,88.7551 52.3438,89.7491 52.5008,89.7291 C54.2798,89.5041 56.0388,89.1241 57.8038,88.7851 C57.7668,88.5251 57.7298,88.2641 57.6938,88.0051 L51.7348,88.0051 Z M47.2078,95.8781 C50.9098,95.3461 51.0808,95.1501 50.5248,92.2291 C46.8688,92.6461 46.8688,92.6461 47.2078,95.8781 Z M52.3078,91.4811 C52.3628,92.5151 52.4068,93.3511 52.4528,94.2331 C57.8088,92.8971 57.8088,92.8971 57.4518,90.6061 C55.7878,90.8891 54.1268,91.1721 52.3078,91.4811 Z M69.3198,90.5711 C69.3068,90.3031 69.2938,90.0351 69.2798,89.7671 C66.3498,89.9211 63.4108,90.0011 60.4948,90.2991 C60.0148,90.3481 59.6318,91.3521 58.8078,92.4371 C62.9318,91.7051 66.1258,91.1381 69.3198,90.5711 Z M38.0848,90.0791 L38.0848,94.1531 C39.9888,93.5311 41.5858,92.8501 43.2518,92.5041 C45.4368,92.0501 45.8798,90.9021 45.0408,88.7331 C42.7218,89.1811 40.4008,89.6311 38.0848,90.0791 Z M45.1958,93.7521 C44.9738,93.7621 44.7348,93.7291 44.5248,93.7921 C43.3408,94.1491 42.1588,94.5111 40.9878,94.9051 C37.6408,96.0311 37.6428,96.0381 38.0638,99.8221 C44.0248,98.4061 45.5648,97.1091 45.1958,93.7521 Z M67.2878,46.1521 C61.7148,45.5781 57.3908,47.4711 55.6198,51.2001 C60.3628,51.6301 63.9148,49.6641 67.2878,46.1521 Z M26.8318,100.8941 C29.7728,102.7831 32.4828,104.4601 35.0918,101.5951 C36.0748,100.5161 36.2488,98.6981 37.0198,96.5911 C35.5838,97.0381 35.0288,97.1511 34.5248,97.3781 C32.0598,98.4841 29.6078,99.6211 26.8318,100.8941 Z M77.7878,92.8861 C71.4418,90.6911 65.5508,93.1181 59.3588,94.0161 C59.4788,95.2571 59.5778,96.2671 59.6598,97.1181 C65.7948,95.6861 71.6678,94.3151 77.7878,92.8861 Z M45.7868,99.2031 C45.5238,99.0171 45.2598,98.8321 44.9968,98.6471 C41.3408,100.4301 37.6848,102.2131 34.0168,104.0011 C37.4588,107.1571 40.9698,106.8771 44.0258,104.1071 C45.1618,103.0781 45.2308,100.8721 45.7868,99.2031 Z M46.9898,102.5671 C49.9358,101.3411 52.5988,99.9411 55.4328,99.1391 C58.2378,98.3441 58.2718,96.7811 57.5868,94.4421 C55.2368,95.1441 53.0098,95.7651 50.8118,96.4751 C46.6258,97.8261 46.6328,97.8471 46.9898,102.5671 Z M69.9248,66.1211 C73.4098,71.7791 82.3248,74.5001 88.3368,71.8751 C83.0698,67.3501 77.1598,65.1691 69.9248,66.1211 Z M19.1538,97.1901 C23.5828,100.4191 24.2148,100.4801 28.5898,98.3831 C30.0818,97.6681 31.5868,96.9761 33.1118,96.3331 C36.6458,94.8441 36.6528,94.8591 36.1338,90.6401 C30.1838,92.0381 24.4558,93.8471 19.1538,97.1901 Z M57.1208,38.9851 C59.1928,33.5731 56.6818,25.4531 51.5338,20.9171 C48.8158,27.1001 51.3938,35.4371 57.1208,38.9851 Z M38.6618,60.2181 C33.7548,65.9101 32.4358,74.5811 35.5078,80.0941 C40.0648,75.8951 41.4978,67.1161 38.6618,60.2181 Z M7.7248,42.4381 C16.1878,47.7031 29.6098,49.0971 35.8698,44.6791 C26.6368,41.6891 17.5658,39.0131 7.7248,42.4381 Z M69.6698,28.0151 C75.1228,34.2131 87.4488,36.9941 94.1918,33.5101 C89.9258,27.9291 77.7558,25.2131 69.6698,28.0151 Z M89.2438,97.7991 C74.6508,97.9931 62.1298,104.0191 49.7048,111.2041 C51.6228,112.6181 53.1758,112.6871 55.0648,111.8901 C64.1608,108.0551 73.3118,104.3511 82.4438,100.6001 C84.7108,99.6681 86.9778,98.7321 89.2438,97.7991 Z M69.5518,64.1731 C76.9358,63.4661 87.3818,52.8771 88.6978,44.7621 C79.5398,45.2071 70.7758,54.0921 69.5518,64.1731 Z M41.0188,9.1321 C35.2088,17.0591 35.0878,35.0731 38.7948,42.6941 C44.2038,35.9371 44.5338,17.3331 41.0188,9.1321 Z M85.4798,95.8751 C85.4778,95.6101 85.4758,95.3451 85.4738,95.0811 C83.3988,94.9211 81.2988,94.4651 79.2558,94.6511 C70.2388,95.4671 61.6338,97.9871 53.3418,101.5411 C49.2678,103.2881 45.3258,105.3431 41.2928,107.2741 C45.2378,110.5581 48.4978,110.3381 52.6968,107.7791 C62.7458,101.6571 73.6268,97.3291 85.4798,95.8751 Z M68.5738,25.8531 C78.0108,22.6521 83.6278,11.4891 84.1238,2.0731 C74.8248,3.9941 68.0078,13.6051 68.5738,25.8531 Z M33.4038,80.9281 C29.5248,72.0231 10.8398,67.2971 2.6288,71.1331 C11.2698,79.5901 21.6948,81.7571 33.4038,80.9281 Z M1.8648,91.0331 C1.7708,91.3761 1.6858,91.5361 1.6888,91.6941 C2.0228,111.0931 2.3498,130.4921 2.7538,149.8891 C2.7698,150.6531 3.3388,151.6501 3.9648,152.1211 C17.7858,162.5301 31.6398,172.8961 45.5248,183.2181 C47.0078,184.3211 48.7238,185.1091 50.9868,186.4241 C50.9868,180.5531 50.9158,175.4131 50.9988,170.2751 C51.2868,152.5411 51.5938,134.8071 51.9938,117.0751 C52.0408,114.9641 51.4928,113.9051 49.4478,113.0241 C40.8318,109.3091 32.2908,105.4131 23.7748,101.4701 C16.4818,98.0931 9.2598,94.5631 1.8648,91.0331 Z M106.5218,92.8401 C105.7668,92.9361 105.5068,92.9151 105.2908,93.0031 C88.5248,99.8521 71.7568,106.6931 55.0248,113.6251 C54.3488,113.9051 53.6218,115.0421 53.6048,115.7941 C53.1308,137.8651 52.7418,159.9371 52.3488,182.0101 C52.3408,182.4361 52.4328,182.8641 52.5348,183.8151 C56.6698,176.8111 60.5098,170.3001 64.3578,163.7951 C68.2528,157.2101 72.1048,150.5971 76.0728,144.0561 C79.9018,137.7441 83.3058,131.1511 87.5728,125.1201 C87.9508,125.3501 88.3278,125.5801 88.7058,125.8101 C77.0628,145.4881 65.4198,165.1661 53.5098,185.2961 C54.4808,184.9511 54.8728,184.8411 55.2408,184.6771 C69.2368,178.4531 82.8008,171.4051 95.7588,163.2251 C98.7078,161.3641 101.5378,159.2971 104.2958,157.1591 C105.0358,156.5861 105.6978,155.4251 105.7358,154.5071 C106.5488,134.8671 107.2678,115.2231 107.9888,95.5801 C108.0008,95.2461 107.8058,94.9041 107.6188,94.2621 C103.6518,100.4321 99.8838,106.2931 96.1158,112.1531 C95.7338,111.9151 95.3508,111.6751 94.9688,111.4371 C98.3988,105.1381 102.7138,99.3431 106.5218,92.8401 Z M18.5188,85.9311 C13.4178,86.9711 8.3178,88.0121 2.4098,89.2171 C4.4898,90.3611 5.9138,91.2121 7.3948,91.9461 C10.1498,93.3111 12.9158,94.6591 15.7288,95.8961 C16.3748,96.1811 17.4328,96.3081 17.9568,95.9721 C23.0708,92.6911 28.7208,90.8071 34.5488,89.3401 C35.0198,89.2221 35.4618,88.9861 36.0418,88.7561 C35.9578,87.9791 35.9238,87.2431 35.7938,86.5251 C35.1088,82.7141 34.9158,82.7151 30.9958,82.7781 C21.1118,82.9371 11.7748,81.1371 3.9308,74.5451 C2.9788,73.7441 2.1048,72.8421 1.2498,71.9351 C0.8668,71.5301 0.6218,70.9951 0.3238,70.5331 C4.7988,66.6191 21.9338,67.1211 31.9818,75.9221 C32.4638,72.6431 32.4948,69.0921 33.5938,65.9101 C34.6658,62.8051 36.8308,60.0771 38.9038,57.3191 C41.3488,61.3371 41.7868,65.4921 41.6088,69.7121 C41.4258,74.0761 40.0098,78.0041 36.8498,81.1951 C36.4798,81.5681 36.2508,82.3621 36.3608,82.8751 C36.7418,84.6501 37.3018,86.3871 37.8778,88.4391 C40.0718,88.0701 42.3358,87.7571 44.5568,87.2511 C44.9308,87.1661 45.3588,86.2541 45.3538,85.7271 C45.2458,74.3891 44.7918,63.0791 41.3528,52.1481 C40.6698,49.9781 39.5368,47.9501 38.5738,45.7691 C26.4208,51.3651 15.5108,48.8651 5.0168,42.4081 C15.6398,36.8821 26.0598,39.8171 36.7228,43.1921 C33.6878,30.1401 33.4278,17.5481 40.8088,5.9501 C41.1738,5.9161 41.5388,5.8811 41.9038,5.8461 C42.6238,8.6791 43.5608,11.4781 44.0208,14.3531 C45.4358,23.1841 45.5428,32.0411 41.7848,40.3361 C40.3408,43.5231 40.1088,45.8051 41.7158,49.0431 C45.0498,55.7591 45.6898,63.2481 46.3068,70.6321 C46.7498,75.9321 46.9028,81.2571 47.2008,86.8861 C48.2328,86.7141 49.1778,86.5561 50.3038,86.3691 C49.6948,70.8961 50.6128,55.6941 56.7898,41.2871 C50.1228,36.2371 46.3868,27.8411 50.9558,17.8991 C56.2278,22.7471 59.3488,28.3121 59.4598,35.4301 C61.8488,32.7211 64.1938,30.1841 66.3638,27.5051 C66.8458,26.9091 66.8068,25.8141 66.8398,24.9431 C67.1128,17.7551 68.8198,11.1221 74.0918,5.8371 C77.2428,2.6781 81.0898,0.8951 85.4028,0.0001 C87.3588,5.7901 82.0728,17.5761 73.9548,25.3661 C82.8268,25.1731 90.8608,26.6671 97.0668,33.9971 C91.9308,36.8921 86.7598,36.8791 81.4568,35.9391 C76.1238,34.9931 71.8258,32.0331 67.6808,28.6621 C62.2058,33.6901 59.0518,39.9101 56.4328,47.0581 C60.8458,44.5141 65.0938,43.7971 69.6588,44.8901 C67.8968,49.5851 61.7378,52.8671 54.7378,52.8711 C51.8188,63.7771 51.4738,74.9251 51.9168,86.3651 C53.8778,86.2521 55.6768,86.1481 57.5848,86.0381 C58.1708,82.9421 58.5918,79.8251 59.3718,76.8001 C60.5768,72.1261 62.5778,67.8931 66.8418,65.0961 C67.4148,64.7211 67.7228,63.7821 67.9328,63.0421 C70.3158,54.6601 74.5618,47.7591 83.0718,44.4341 C85.4098,43.5201 87.9728,43.1821 90.7008,42.9601 C88.5068,52.2201 83.4708,59.2151 75.4908,63.9341 C78.4038,64.9821 81.3978,65.8281 84.1818,67.1251 C86.9308,68.4051 89.4208,70.1941 91.1858,72.8401 C84.7288,76.7421 74.8198,74.0381 67.6208,66.4631 C61.2168,71.4431 60.2748,78.6071 59.5328,85.2831 C70.5538,88.9691 81.2428,92.5461 91.9358,96.1101 C92.3108,96.2361 92.7928,96.4071 93.1128,96.2791 C97.3968,94.5541 101.6608,92.7811 106.5558,90.7611 C92.4078,86.7461 78.9418,82.9241 65.4768,79.1031 C65.5288,78.7521 65.5818,78.3991 65.6338,78.0481 C66.2618,78.0481 66.9298,77.9051 67.5118,78.0681 C81.0268,81.8661 94.5308,85.7071 108.0448,89.5081 C109.4078,89.8921 109.8428,90.6351 109.7908,92.0371 C109.1808,108.4371 108.6398,124.8411 108.0388,141.2411 C107.8778,145.6521 107.4988,150.0551 107.3818,154.4661 C107.3358,156.2051 106.8718,157.4981 105.3778,158.4421 C97.9998,163.1061 90.8508,168.1801 83.2188,172.3811 C73.8368,177.5431 64.0408,181.9511 54.4608,186.7581 C51.8488,188.0691 49.5438,187.7561 47.2648,186.1071 C36.4818,178.3021 25.6638,170.5471 14.9198,162.6891 C10.8908,159.7411 7.0898,156.4791 3.0608,153.5311 C1.5248,152.4081 1.0278,151.1541 1.0028,149.3501 C0.7898,134.3541 0.5098,119.3591 0.2518,104.3631 C0.1728,99.7811 0.1358,95.1981 0.0028,90.6181 C-0.0432,89.0381 0.4878,88.0801 2.0918,87.7661 C7.0628,86.7951 12.0278,85.7891 17.0008,84.8311 C17.4258,84.7501 17.9008,84.9261 18.3528,84.9831 C18.4078,85.2991 18.4628,85.6151 18.5188,85.9311 Z" id="Fill-1"></path>
                <path d="M10.1667,24.0393 C11.4197,28.9393 19.3477,35.2723 25.1817,36.0043 C20.4357,32.2223 15.0867,27.9593 10.1667,24.0393 M8.8747,16.5623 C10.3917,23.4813 24.8287,35.9133 31.7107,36.3783 C29.6397,23.5203 17.2967,17.1353 8.8747,16.5623 M33.6887,39.0033 C22.8587,38.9073 7.6227,32.1223 6.5677,17.0423 C6.4317,15.0963 6.7697,14.4973 8.7927,14.7983 C21.3947,16.6703 31.5517,24.0483 33.6807,37.6273 C33.7427,38.0223 33.6887,38.4353 33.6887,39.0033" id="Fill-3"></path>
                <path d="M85.5342,23.1037 C95.7832,25.9637 104.6982,20.4817 107.9462,13.3167 C101.3102,18.8007 93.9162,22.1167 85.5342,23.1037 M109.4412,9.2247 C98.7142,7.5707 86.0142,13.3187 82.5452,21.2477 C90.7192,22.2007 104.7682,15.9847 109.4412,9.2247 M112.1102,8.2907 C110.8192,15.0117 103.2282,24.8497 93.2162,25.2807 C89.2532,25.4527 85.2222,24.2947 81.2382,23.6427 C79.9182,23.4267 79.5002,22.6777 80.2382,21.2997 C85.7032,11.1037 101.1402,4.7747 112.1102,8.2907" id="Fill-5"></path>
                <path d="M88.0349,64.4656 C92.7789,67.6046 104.5679,67.0176 107.4859,63.6116 C101.1449,63.8906 94.2979,64.1906 88.0349,64.4656 M109.9909,60.5286 C103.4099,55.7496 89.8279,56.5146 83.9009,62.0056 C92.7699,62.9876 101.3529,63.5796 109.9909,60.5286 M80.6869,62.9246 C86.4469,54.6656 104.7209,53.2866 112.5989,60.2736 C111.6939,63.0696 109.5429,64.7096 107.0169,65.8806 C100.0579,69.1096 93.0809,68.2056 86.1829,65.6656 C84.2899,64.9686 82.5459,63.8656 80.6869,62.9246" id="Fill-7"></path>
            </g>
        </g>
    </g>
</svg>