<?xml version="1.0" encoding="UTF-8"?>
<svg width="14px" height="14px" viewBox="0 0 14 14" version="1.1" xmlns="http://www.w3.org/2000/svg" xmlns:xlink="http://www.w3.org/1999/xlink">
    <!-- Generator: Sketch 51.3 (57544) - http://www.bohemiancoding.com/sketch -->
    <title>ios-search-outline</title>
    <desc>Created with Sketch.</desc>
    <defs></defs>
    <g id="ionicons" stroke="none" stroke-width="1" fill="none" fill-rule="evenodd">
        <g id="ios-search-outline" transform="translate(-5.000000, -5.000000)" fill="#000000" fill-rule="nonzero">
            <path d="M18.75,17.9308594 L14.7667969,13.9441406 C15.4980469,13.0300781 15.9375,11.8664062 15.9375,10.6007812 C15.9375,7.64414063 13.5433594,5.25 10.59375,5.25 C7.640625,5.25 5.25,7.64765625 5.25,10.6007812 C5.25,13.5539062 7.64414063,15.9515625 10.59375,15.9515625 C11.8664062,15.9515625 13.0335938,15.5050781 13.9511719,14.7632812 L17.9308594,18.75 L18.75,17.9308594 Z M7.21171875,13.9898438 C6.30820313,13.0863281 5.8125,11.8839844 5.8125,10.6042969 C5.8125,9.32460937 6.31171875,8.12226563 7.21171875,7.21875 C8.11171875,6.31523438 9.31757813,5.8125 10.59375,5.8125 C11.8699219,5.8125 13.0722656,6.31171875 13.9757812,7.21523437 C14.8792969,8.11875 15.375,9.32109375 15.375,10.6007813 C15.375,11.8804687 14.8757813,13.0828125 13.9757812,13.9863281 C13.0722656,14.8898437 11.8699219,15.3890625 10.59375,15.3890625 C9.31757813,15.3925781 8.11523438,14.8933594 7.21171875,13.9898438 Z"></path>
        </g>
    </g>
</svg>